<mxfile host="app.diagrams.net" modified="2022-10-18T01:20:50.836Z" agent="5.0 (Windows NT 10.0; Win64; x64) AppleWebKit/537.36 (KHTML, like Gecko) Chrome/106.0.0.0 Safari/537.36" etag="GNm-QeDJONuNOQ2RBgug" version="20.4.1" type="github">
  <diagram id="R2lEEEUBdFMjLlhIrx00" name="Page-1">
    <mxGraphModel dx="4073" dy="2854" grid="1" gridSize="10" guides="1" tooltips="1" connect="1" arrows="1" fold="1" page="1" pageScale="1" pageWidth="1200" pageHeight="1920" math="0" shadow="0" extFonts="Permanent Marker^https://fonts.googleapis.com/css?family=Permanent+Marker">
      <root>
        <mxCell id="0" />
        <mxCell id="1" parent="0" />
        <object label="MEMBER(회원)" idx="" id="C-vyLk0tnHw3VtMMgP7b-23">
          <mxCell style="shape=table;startSize=30;container=1;collapsible=1;childLayout=tableLayout;fixedRows=1;rowLines=0;fontStyle=1;align=center;resizeLast=1;fillColor=#cce5ff;strokeColor=#36393d;fontSize=18;" parent="1" vertex="1">
            <mxGeometry x="-1230" y="-730" width="510" height="200" as="geometry" />
          </mxCell>
        </object>
        <mxCell id="C-vyLk0tnHw3VtMMgP7b-24" value="" style="shape=partialRectangle;collapsible=0;dropTarget=0;pointerEvents=0;fillColor=#eeeeee;points=[[0,0.5],[1,0.5]];portConstraint=eastwest;top=0;left=0;right=0;bottom=1;strokeColor=#36393d;" parent="C-vyLk0tnHw3VtMMgP7b-23" vertex="1">
          <mxGeometry y="30" width="510" height="30" as="geometry" />
        </mxCell>
        <mxCell id="C-vyLk0tnHw3VtMMgP7b-25" value="KEY" style="shape=partialRectangle;overflow=hidden;connectable=0;fillColor=#eeeeee;top=0;left=0;bottom=0;right=0;fontStyle=1;strokeColor=#36393d;" parent="C-vyLk0tnHw3VtMMgP7b-24" vertex="1">
          <mxGeometry width="30" height="30" as="geometry">
            <mxRectangle width="30" height="30" as="alternateBounds" />
          </mxGeometry>
        </mxCell>
        <mxCell id="C-vyLk0tnHw3VtMMgP7b-26" value="ATT" style="shape=partialRectangle;overflow=hidden;connectable=0;fillColor=#eeeeee;top=0;left=0;bottom=0;right=0;align=left;spacingLeft=6;fontStyle=5;strokeColor=#36393d;" parent="C-vyLk0tnHw3VtMMgP7b-24" vertex="1">
          <mxGeometry x="30" width="50" height="30" as="geometry">
            <mxRectangle width="50" height="30" as="alternateBounds" />
          </mxGeometry>
        </mxCell>
        <mxCell id="lmOcfVDpMMb4SoSBJFk1-18" value="DATA" style="shape=partialRectangle;overflow=hidden;connectable=0;fillColor=#eeeeee;top=0;left=0;bottom=0;right=0;align=left;spacingLeft=6;fontStyle=5;strokeColor=#36393d;" parent="C-vyLk0tnHw3VtMMgP7b-24" vertex="1">
          <mxGeometry x="80" width="79" height="30" as="geometry">
            <mxRectangle width="79" height="30" as="alternateBounds" />
          </mxGeometry>
        </mxCell>
        <mxCell id="lmOcfVDpMMb4SoSBJFk1-21" value="NN" style="shape=partialRectangle;overflow=hidden;connectable=0;fillColor=#eeeeee;top=0;left=0;bottom=0;right=0;align=left;spacingLeft=6;fontStyle=5;strokeColor=#36393d;" parent="C-vyLk0tnHw3VtMMgP7b-24" vertex="1">
          <mxGeometry x="159" width="31" height="30" as="geometry">
            <mxRectangle width="31" height="30" as="alternateBounds" />
          </mxGeometry>
        </mxCell>
        <mxCell id="lmOcfVDpMMb4SoSBJFk1-23" value="DEFAULT" style="shape=partialRectangle;overflow=hidden;connectable=0;fillColor=#eeeeee;top=0;left=0;bottom=0;right=0;align=left;spacingLeft=6;fontStyle=5;strokeColor=#36393d;" parent="C-vyLk0tnHw3VtMMgP7b-24" vertex="1">
          <mxGeometry x="190" width="70" height="30" as="geometry">
            <mxRectangle width="70" height="30" as="alternateBounds" />
          </mxGeometry>
        </mxCell>
        <mxCell id="lmOcfVDpMMb4SoSBJFk1-63" value="EX" style="shape=partialRectangle;overflow=hidden;connectable=0;fillColor=#eeeeee;top=0;left=0;bottom=0;right=0;align=left;spacingLeft=6;fontStyle=5;strokeColor=#36393d;" parent="C-vyLk0tnHw3VtMMgP7b-24" vertex="1">
          <mxGeometry x="260" width="110" height="30" as="geometry">
            <mxRectangle width="110" height="30" as="alternateBounds" />
          </mxGeometry>
        </mxCell>
        <mxCell id="yEf2gbcgYrwrFwAvnMjx-94" value="설명" style="shape=partialRectangle;overflow=hidden;connectable=0;fillColor=#eeeeee;top=0;left=0;bottom=0;right=0;align=left;spacingLeft=6;fontStyle=5;strokeColor=#36393d;" parent="C-vyLk0tnHw3VtMMgP7b-24" vertex="1">
          <mxGeometry x="370" width="140" height="30" as="geometry">
            <mxRectangle width="140" height="30" as="alternateBounds" />
          </mxGeometry>
        </mxCell>
        <mxCell id="lmOcfVDpMMb4SoSBJFk1-57" style="shape=partialRectangle;collapsible=0;dropTarget=0;pointerEvents=0;fillColor=#eeeeee;points=[[0,0.5],[1,0.5]];portConstraint=eastwest;top=0;left=0;right=0;bottom=0;strokeColor=#36393d;" parent="C-vyLk0tnHw3VtMMgP7b-23" vertex="1">
          <mxGeometry y="60" width="510" height="20" as="geometry" />
        </mxCell>
        <mxCell id="lmOcfVDpMMb4SoSBJFk1-58" value="pk" style="shape=partialRectangle;overflow=hidden;connectable=0;fillColor=#eeeeee;top=0;left=0;bottom=0;right=0;strokeColor=#36393d;" parent="lmOcfVDpMMb4SoSBJFk1-57" vertex="1">
          <mxGeometry width="30" height="20" as="geometry">
            <mxRectangle width="30" height="20" as="alternateBounds" />
          </mxGeometry>
        </mxCell>
        <mxCell id="lmOcfVDpMMb4SoSBJFk1-59" value="idx" style="shape=partialRectangle;overflow=hidden;connectable=0;fillColor=#eeeeee;top=0;left=0;bottom=0;right=0;align=left;spacingLeft=6;strokeColor=#36393d;" parent="lmOcfVDpMMb4SoSBJFk1-57" vertex="1">
          <mxGeometry x="30" width="50" height="20" as="geometry">
            <mxRectangle width="50" height="20" as="alternateBounds" />
          </mxGeometry>
        </mxCell>
        <mxCell id="lmOcfVDpMMb4SoSBJFk1-60" value="int" style="shape=partialRectangle;overflow=hidden;connectable=0;fillColor=#eeeeee;top=0;left=0;bottom=0;right=0;align=left;spacingLeft=6;strokeColor=#36393d;" parent="lmOcfVDpMMb4SoSBJFk1-57" vertex="1">
          <mxGeometry x="80" width="79" height="20" as="geometry">
            <mxRectangle width="79" height="20" as="alternateBounds" />
          </mxGeometry>
        </mxCell>
        <mxCell id="lmOcfVDpMMb4SoSBJFk1-61" value="nn" style="shape=partialRectangle;overflow=hidden;connectable=0;fillColor=#eeeeee;top=0;left=0;bottom=0;right=0;align=left;spacingLeft=6;strokeColor=#36393d;" parent="lmOcfVDpMMb4SoSBJFk1-57" vertex="1">
          <mxGeometry x="159" width="31" height="20" as="geometry">
            <mxRectangle width="31" height="20" as="alternateBounds" />
          </mxGeometry>
        </mxCell>
        <mxCell id="lmOcfVDpMMb4SoSBJFk1-62" value="auto indx" style="shape=partialRectangle;overflow=hidden;connectable=0;fillColor=#eeeeee;top=0;left=0;bottom=0;right=0;align=left;spacingLeft=6;strokeColor=#36393d;" parent="lmOcfVDpMMb4SoSBJFk1-57" vertex="1">
          <mxGeometry x="190" width="70" height="20" as="geometry">
            <mxRectangle width="70" height="20" as="alternateBounds" />
          </mxGeometry>
        </mxCell>
        <mxCell id="lmOcfVDpMMb4SoSBJFk1-64" value="1" style="shape=partialRectangle;overflow=hidden;connectable=0;fillColor=#eeeeee;top=0;left=0;bottom=0;right=0;align=left;spacingLeft=6;strokeColor=#36393d;" parent="lmOcfVDpMMb4SoSBJFk1-57" vertex="1">
          <mxGeometry x="260" width="110" height="20" as="geometry">
            <mxRectangle width="110" height="20" as="alternateBounds" />
          </mxGeometry>
        </mxCell>
        <mxCell id="yEf2gbcgYrwrFwAvnMjx-95" value="회원번호" style="shape=partialRectangle;overflow=hidden;connectable=0;fillColor=#eeeeee;top=0;left=0;bottom=0;right=0;align=left;spacingLeft=6;strokeColor=#36393d;" parent="lmOcfVDpMMb4SoSBJFk1-57" vertex="1">
          <mxGeometry x="370" width="140" height="20" as="geometry">
            <mxRectangle width="140" height="20" as="alternateBounds" />
          </mxGeometry>
        </mxCell>
        <mxCell id="C-vyLk0tnHw3VtMMgP7b-27" value="" style="shape=partialRectangle;collapsible=0;dropTarget=0;pointerEvents=0;fillColor=#eeeeee;points=[[0,0.5],[1,0.5]];portConstraint=eastwest;top=0;left=0;right=0;bottom=0;strokeColor=#36393d;" parent="C-vyLk0tnHw3VtMMgP7b-23" vertex="1">
          <mxGeometry y="80" width="510" height="20" as="geometry" />
        </mxCell>
        <mxCell id="C-vyLk0tnHw3VtMMgP7b-28" value="" style="shape=partialRectangle;overflow=hidden;connectable=0;fillColor=#eeeeee;top=0;left=0;bottom=0;right=0;strokeColor=#36393d;" parent="C-vyLk0tnHw3VtMMgP7b-27" vertex="1">
          <mxGeometry width="30" height="20" as="geometry">
            <mxRectangle width="30" height="20" as="alternateBounds" />
          </mxGeometry>
        </mxCell>
        <mxCell id="C-vyLk0tnHw3VtMMgP7b-29" value="nick" style="shape=partialRectangle;overflow=hidden;connectable=0;fillColor=#eeeeee;top=0;left=0;bottom=0;right=0;align=left;spacingLeft=6;strokeColor=#36393d;" parent="C-vyLk0tnHw3VtMMgP7b-27" vertex="1">
          <mxGeometry x="30" width="50" height="20" as="geometry">
            <mxRectangle width="50" height="20" as="alternateBounds" />
          </mxGeometry>
        </mxCell>
        <mxCell id="lmOcfVDpMMb4SoSBJFk1-19" value="varchar(45)" style="shape=partialRectangle;overflow=hidden;connectable=0;fillColor=#eeeeee;top=0;left=0;bottom=0;right=0;align=left;spacingLeft=6;strokeColor=#36393d;" parent="C-vyLk0tnHw3VtMMgP7b-27" vertex="1">
          <mxGeometry x="80" width="79" height="20" as="geometry">
            <mxRectangle width="79" height="20" as="alternateBounds" />
          </mxGeometry>
        </mxCell>
        <mxCell id="lmOcfVDpMMb4SoSBJFk1-22" value="nn" style="shape=partialRectangle;overflow=hidden;connectable=0;fillColor=#eeeeee;top=0;left=0;bottom=0;right=0;align=left;spacingLeft=6;strokeColor=#36393d;" parent="C-vyLk0tnHw3VtMMgP7b-27" vertex="1">
          <mxGeometry x="159" width="31" height="20" as="geometry">
            <mxRectangle width="31" height="20" as="alternateBounds" />
          </mxGeometry>
        </mxCell>
        <mxCell id="lmOcfVDpMMb4SoSBJFk1-24" value="-" style="shape=partialRectangle;overflow=hidden;connectable=0;fillColor=#eeeeee;top=0;left=0;bottom=0;right=0;align=left;spacingLeft=6;strokeColor=#36393d;" parent="C-vyLk0tnHw3VtMMgP7b-27" vertex="1">
          <mxGeometry x="190" width="70" height="20" as="geometry">
            <mxRectangle width="70" height="20" as="alternateBounds" />
          </mxGeometry>
        </mxCell>
        <mxCell id="lmOcfVDpMMb4SoSBJFk1-65" value="harry" style="shape=partialRectangle;overflow=hidden;connectable=0;fillColor=#eeeeee;top=0;left=0;bottom=0;right=0;align=left;spacingLeft=6;strokeColor=#36393d;" parent="C-vyLk0tnHw3VtMMgP7b-27" vertex="1">
          <mxGeometry x="260" width="110" height="20" as="geometry">
            <mxRectangle width="110" height="20" as="alternateBounds" />
          </mxGeometry>
        </mxCell>
        <mxCell id="yEf2gbcgYrwrFwAvnMjx-96" value="닉네임" style="shape=partialRectangle;overflow=hidden;connectable=0;fillColor=#eeeeee;top=0;left=0;bottom=0;right=0;align=left;spacingLeft=6;strokeColor=#36393d;" parent="C-vyLk0tnHw3VtMMgP7b-27" vertex="1">
          <mxGeometry x="370" width="140" height="20" as="geometry">
            <mxRectangle width="140" height="20" as="alternateBounds" />
          </mxGeometry>
        </mxCell>
        <mxCell id="lmOcfVDpMMb4SoSBJFk1-25" style="shape=partialRectangle;collapsible=0;dropTarget=0;pointerEvents=0;fillColor=#eeeeee;points=[[0,0.5],[1,0.5]];portConstraint=eastwest;top=0;left=0;right=0;bottom=0;strokeColor=#36393d;" parent="C-vyLk0tnHw3VtMMgP7b-23" vertex="1">
          <mxGeometry y="100" width="510" height="20" as="geometry" />
        </mxCell>
        <mxCell id="lmOcfVDpMMb4SoSBJFk1-26" style="shape=partialRectangle;overflow=hidden;connectable=0;fillColor=#eeeeee;top=0;left=0;bottom=0;right=0;strokeColor=#36393d;" parent="lmOcfVDpMMb4SoSBJFk1-25" vertex="1">
          <mxGeometry width="30" height="20" as="geometry">
            <mxRectangle width="30" height="20" as="alternateBounds" />
          </mxGeometry>
        </mxCell>
        <mxCell id="lmOcfVDpMMb4SoSBJFk1-27" value="email" style="shape=partialRectangle;overflow=hidden;connectable=0;fillColor=#eeeeee;top=0;left=0;bottom=0;right=0;align=left;spacingLeft=6;strokeColor=#36393d;" parent="lmOcfVDpMMb4SoSBJFk1-25" vertex="1">
          <mxGeometry x="30" width="50" height="20" as="geometry">
            <mxRectangle width="50" height="20" as="alternateBounds" />
          </mxGeometry>
        </mxCell>
        <mxCell id="lmOcfVDpMMb4SoSBJFk1-28" value="varchar(45)" style="shape=partialRectangle;overflow=hidden;connectable=0;fillColor=#eeeeee;top=0;left=0;bottom=0;right=0;align=left;spacingLeft=6;strokeColor=#36393d;" parent="lmOcfVDpMMb4SoSBJFk1-25" vertex="1">
          <mxGeometry x="80" width="79" height="20" as="geometry">
            <mxRectangle width="79" height="20" as="alternateBounds" />
          </mxGeometry>
        </mxCell>
        <mxCell id="lmOcfVDpMMb4SoSBJFk1-29" value="nn" style="shape=partialRectangle;overflow=hidden;connectable=0;fillColor=#eeeeee;top=0;left=0;bottom=0;right=0;align=left;spacingLeft=6;strokeColor=#36393d;" parent="lmOcfVDpMMb4SoSBJFk1-25" vertex="1">
          <mxGeometry x="159" width="31" height="20" as="geometry">
            <mxRectangle width="31" height="20" as="alternateBounds" />
          </mxGeometry>
        </mxCell>
        <mxCell id="lmOcfVDpMMb4SoSBJFk1-30" value="-" style="shape=partialRectangle;overflow=hidden;connectable=0;fillColor=#eeeeee;top=0;left=0;bottom=0;right=0;align=left;spacingLeft=6;strokeColor=#36393d;" parent="lmOcfVDpMMb4SoSBJFk1-25" vertex="1">
          <mxGeometry x="190" width="70" height="20" as="geometry">
            <mxRectangle width="70" height="20" as="alternateBounds" />
          </mxGeometry>
        </mxCell>
        <mxCell id="lmOcfVDpMMb4SoSBJFk1-66" value="harry@naver.com" style="shape=partialRectangle;overflow=hidden;connectable=0;fillColor=#eeeeee;top=0;left=0;bottom=0;right=0;align=left;spacingLeft=6;strokeColor=#36393d;" parent="lmOcfVDpMMb4SoSBJFk1-25" vertex="1">
          <mxGeometry x="260" width="110" height="20" as="geometry">
            <mxRectangle width="110" height="20" as="alternateBounds" />
          </mxGeometry>
        </mxCell>
        <mxCell id="yEf2gbcgYrwrFwAvnMjx-97" value="이메일" style="shape=partialRectangle;overflow=hidden;connectable=0;fillColor=#eeeeee;top=0;left=0;bottom=0;right=0;align=left;spacingLeft=6;strokeColor=#36393d;" parent="lmOcfVDpMMb4SoSBJFk1-25" vertex="1">
          <mxGeometry x="370" width="140" height="20" as="geometry">
            <mxRectangle width="140" height="20" as="alternateBounds" />
          </mxGeometry>
        </mxCell>
        <mxCell id="lmOcfVDpMMb4SoSBJFk1-45" style="shape=partialRectangle;collapsible=0;dropTarget=0;pointerEvents=0;fillColor=#eeeeee;points=[[0,0.5],[1,0.5]];portConstraint=eastwest;top=0;left=0;right=0;bottom=0;strokeColor=#36393d;" parent="C-vyLk0tnHw3VtMMgP7b-23" vertex="1">
          <mxGeometry y="120" width="510" height="20" as="geometry" />
        </mxCell>
        <mxCell id="lmOcfVDpMMb4SoSBJFk1-46" style="shape=partialRectangle;overflow=hidden;connectable=0;fillColor=#eeeeee;top=0;left=0;bottom=0;right=0;strokeColor=#36393d;" parent="lmOcfVDpMMb4SoSBJFk1-45" vertex="1">
          <mxGeometry width="30" height="20" as="geometry">
            <mxRectangle width="30" height="20" as="alternateBounds" />
          </mxGeometry>
        </mxCell>
        <mxCell id="lmOcfVDpMMb4SoSBJFk1-47" value="pw " style="shape=partialRectangle;overflow=hidden;connectable=0;fillColor=#eeeeee;top=0;left=0;bottom=0;right=0;align=left;spacingLeft=6;strokeColor=#36393d;" parent="lmOcfVDpMMb4SoSBJFk1-45" vertex="1">
          <mxGeometry x="30" width="50" height="20" as="geometry">
            <mxRectangle width="50" height="20" as="alternateBounds" />
          </mxGeometry>
        </mxCell>
        <mxCell id="lmOcfVDpMMb4SoSBJFk1-48" value="varchar(45)" style="shape=partialRectangle;overflow=hidden;connectable=0;fillColor=#eeeeee;top=0;left=0;bottom=0;right=0;align=left;spacingLeft=6;strokeColor=#36393d;" parent="lmOcfVDpMMb4SoSBJFk1-45" vertex="1">
          <mxGeometry x="80" width="79" height="20" as="geometry">
            <mxRectangle width="79" height="20" as="alternateBounds" />
          </mxGeometry>
        </mxCell>
        <mxCell id="lmOcfVDpMMb4SoSBJFk1-49" value="nn" style="shape=partialRectangle;overflow=hidden;connectable=0;fillColor=#eeeeee;top=0;left=0;bottom=0;right=0;align=left;spacingLeft=6;strokeColor=#36393d;" parent="lmOcfVDpMMb4SoSBJFk1-45" vertex="1">
          <mxGeometry x="159" width="31" height="20" as="geometry">
            <mxRectangle width="31" height="20" as="alternateBounds" />
          </mxGeometry>
        </mxCell>
        <mxCell id="lmOcfVDpMMb4SoSBJFk1-50" value="-" style="shape=partialRectangle;overflow=hidden;connectable=0;fillColor=#eeeeee;top=0;left=0;bottom=0;right=0;align=left;spacingLeft=6;strokeColor=#36393d;" parent="lmOcfVDpMMb4SoSBJFk1-45" vertex="1">
          <mxGeometry x="190" width="70" height="20" as="geometry">
            <mxRectangle width="70" height="20" as="alternateBounds" />
          </mxGeometry>
        </mxCell>
        <mxCell id="lmOcfVDpMMb4SoSBJFk1-67" value="1234" style="shape=partialRectangle;overflow=hidden;connectable=0;fillColor=#eeeeee;top=0;left=0;bottom=0;right=0;align=left;spacingLeft=6;strokeColor=#36393d;" parent="lmOcfVDpMMb4SoSBJFk1-45" vertex="1">
          <mxGeometry x="260" width="110" height="20" as="geometry">
            <mxRectangle width="110" height="20" as="alternateBounds" />
          </mxGeometry>
        </mxCell>
        <mxCell id="yEf2gbcgYrwrFwAvnMjx-98" value="패스워드" style="shape=partialRectangle;overflow=hidden;connectable=0;fillColor=#eeeeee;top=0;left=0;bottom=0;right=0;align=left;spacingLeft=6;strokeColor=#36393d;" parent="lmOcfVDpMMb4SoSBJFk1-45" vertex="1">
          <mxGeometry x="370" width="140" height="20" as="geometry">
            <mxRectangle width="140" height="20" as="alternateBounds" />
          </mxGeometry>
        </mxCell>
        <mxCell id="lmOcfVDpMMb4SoSBJFk1-39" style="shape=partialRectangle;collapsible=0;dropTarget=0;pointerEvents=0;fillColor=#eeeeee;points=[[0,0.5],[1,0.5]];portConstraint=eastwest;top=0;left=0;right=0;bottom=0;strokeColor=#36393d;" parent="C-vyLk0tnHw3VtMMgP7b-23" vertex="1">
          <mxGeometry y="140" width="510" height="20" as="geometry" />
        </mxCell>
        <mxCell id="lmOcfVDpMMb4SoSBJFk1-40" style="shape=partialRectangle;overflow=hidden;connectable=0;fillColor=#eeeeee;top=0;left=0;bottom=0;right=0;strokeColor=#36393d;" parent="lmOcfVDpMMb4SoSBJFk1-39" vertex="1">
          <mxGeometry width="30" height="20" as="geometry">
            <mxRectangle width="30" height="20" as="alternateBounds" />
          </mxGeometry>
        </mxCell>
        <mxCell id="lmOcfVDpMMb4SoSBJFk1-41" value="auth" style="shape=partialRectangle;overflow=hidden;connectable=0;fillColor=#eeeeee;top=0;left=0;bottom=0;right=0;align=left;spacingLeft=6;strokeColor=#36393d;" parent="lmOcfVDpMMb4SoSBJFk1-39" vertex="1">
          <mxGeometry x="30" width="50" height="20" as="geometry">
            <mxRectangle width="50" height="20" as="alternateBounds" />
          </mxGeometry>
        </mxCell>
        <mxCell id="lmOcfVDpMMb4SoSBJFk1-42" value="tinyint(1)" style="shape=partialRectangle;overflow=hidden;connectable=0;fillColor=#eeeeee;top=0;left=0;bottom=0;right=0;align=left;spacingLeft=6;strokeColor=#36393d;" parent="lmOcfVDpMMb4SoSBJFk1-39" vertex="1">
          <mxGeometry x="80" width="79" height="20" as="geometry">
            <mxRectangle width="79" height="20" as="alternateBounds" />
          </mxGeometry>
        </mxCell>
        <mxCell id="lmOcfVDpMMb4SoSBJFk1-43" value="nn" style="shape=partialRectangle;overflow=hidden;connectable=0;fillColor=#eeeeee;top=0;left=0;bottom=0;right=0;align=left;spacingLeft=6;strokeColor=#36393d;" parent="lmOcfVDpMMb4SoSBJFk1-39" vertex="1">
          <mxGeometry x="159" width="31" height="20" as="geometry">
            <mxRectangle width="31" height="20" as="alternateBounds" />
          </mxGeometry>
        </mxCell>
        <mxCell id="lmOcfVDpMMb4SoSBJFk1-44" value="0" style="shape=partialRectangle;overflow=hidden;connectable=0;fillColor=#eeeeee;top=0;left=0;bottom=0;right=0;align=left;spacingLeft=6;strokeColor=#36393d;" parent="lmOcfVDpMMb4SoSBJFk1-39" vertex="1">
          <mxGeometry x="190" width="70" height="20" as="geometry">
            <mxRectangle width="70" height="20" as="alternateBounds" />
          </mxGeometry>
        </mxCell>
        <mxCell id="lmOcfVDpMMb4SoSBJFk1-68" value="1" style="shape=partialRectangle;overflow=hidden;connectable=0;fillColor=#eeeeee;top=0;left=0;bottom=0;right=0;align=left;spacingLeft=6;strokeColor=#36393d;" parent="lmOcfVDpMMb4SoSBJFk1-39" vertex="1">
          <mxGeometry x="260" width="110" height="20" as="geometry">
            <mxRectangle width="110" height="20" as="alternateBounds" />
          </mxGeometry>
        </mxCell>
        <mxCell id="yEf2gbcgYrwrFwAvnMjx-99" value="이메일 인증 여부" style="shape=partialRectangle;overflow=hidden;connectable=0;fillColor=#eeeeee;top=0;left=0;bottom=0;right=0;align=left;spacingLeft=6;strokeColor=#36393d;" parent="lmOcfVDpMMb4SoSBJFk1-39" vertex="1">
          <mxGeometry x="370" width="140" height="20" as="geometry">
            <mxRectangle width="140" height="20" as="alternateBounds" />
          </mxGeometry>
        </mxCell>
        <mxCell id="lmOcfVDpMMb4SoSBJFk1-33" style="shape=partialRectangle;collapsible=0;dropTarget=0;pointerEvents=0;fillColor=#eeeeee;points=[[0,0.5],[1,0.5]];portConstraint=eastwest;top=0;left=0;right=0;bottom=0;strokeColor=#36393d;" parent="C-vyLk0tnHw3VtMMgP7b-23" vertex="1">
          <mxGeometry y="160" width="510" height="20" as="geometry" />
        </mxCell>
        <mxCell id="lmOcfVDpMMb4SoSBJFk1-34" style="shape=partialRectangle;overflow=hidden;connectable=0;fillColor=#eeeeee;top=0;left=0;bottom=0;right=0;strokeColor=#36393d;" parent="lmOcfVDpMMb4SoSBJFk1-33" vertex="1">
          <mxGeometry width="30" height="20" as="geometry">
            <mxRectangle width="30" height="20" as="alternateBounds" />
          </mxGeometry>
        </mxCell>
        <mxCell id="lmOcfVDpMMb4SoSBJFk1-35" value="date" style="shape=partialRectangle;overflow=hidden;connectable=0;fillColor=#eeeeee;top=0;left=0;bottom=0;right=0;align=left;spacingLeft=6;strokeColor=#36393d;" parent="lmOcfVDpMMb4SoSBJFk1-33" vertex="1">
          <mxGeometry x="30" width="50" height="20" as="geometry">
            <mxRectangle width="50" height="20" as="alternateBounds" />
          </mxGeometry>
        </mxCell>
        <mxCell id="lmOcfVDpMMb4SoSBJFk1-36" value="timestamp" style="shape=partialRectangle;overflow=hidden;connectable=0;fillColor=#eeeeee;top=0;left=0;bottom=0;right=0;align=left;spacingLeft=6;strokeColor=#36393d;" parent="lmOcfVDpMMb4SoSBJFk1-33" vertex="1">
          <mxGeometry x="80" width="79" height="20" as="geometry">
            <mxRectangle width="79" height="20" as="alternateBounds" />
          </mxGeometry>
        </mxCell>
        <mxCell id="lmOcfVDpMMb4SoSBJFk1-37" value="nn" style="shape=partialRectangle;overflow=hidden;connectable=0;fillColor=#eeeeee;top=0;left=0;bottom=0;right=0;align=left;spacingLeft=6;strokeColor=#36393d;" parent="lmOcfVDpMMb4SoSBJFk1-33" vertex="1">
          <mxGeometry x="159" width="31" height="20" as="geometry">
            <mxRectangle width="31" height="20" as="alternateBounds" />
          </mxGeometry>
        </mxCell>
        <mxCell id="lmOcfVDpMMb4SoSBJFk1-38" value="now()" style="shape=partialRectangle;overflow=hidden;connectable=0;fillColor=#eeeeee;top=0;left=0;bottom=0;right=0;align=left;spacingLeft=6;strokeColor=#36393d;" parent="lmOcfVDpMMb4SoSBJFk1-33" vertex="1">
          <mxGeometry x="190" width="70" height="20" as="geometry">
            <mxRectangle width="70" height="20" as="alternateBounds" />
          </mxGeometry>
        </mxCell>
        <mxCell id="lmOcfVDpMMb4SoSBJFk1-69" value="2022-10-17 11:13:46" style="shape=partialRectangle;overflow=hidden;connectable=0;fillColor=#eeeeee;top=0;left=0;bottom=0;right=0;align=left;spacingLeft=6;strokeColor=#36393d;" parent="lmOcfVDpMMb4SoSBJFk1-33" vertex="1">
          <mxGeometry x="260" width="110" height="20" as="geometry">
            <mxRectangle width="110" height="20" as="alternateBounds" />
          </mxGeometry>
        </mxCell>
        <mxCell id="yEf2gbcgYrwrFwAvnMjx-100" value="가입일" style="shape=partialRectangle;overflow=hidden;connectable=0;fillColor=#eeeeee;top=0;left=0;bottom=0;right=0;align=left;spacingLeft=6;strokeColor=#36393d;" parent="lmOcfVDpMMb4SoSBJFk1-33" vertex="1">
          <mxGeometry x="370" width="140" height="20" as="geometry">
            <mxRectangle width="140" height="20" as="alternateBounds" />
          </mxGeometry>
        </mxCell>
        <mxCell id="yEf2gbcgYrwrFwAvnMjx-418" style="shape=partialRectangle;collapsible=0;dropTarget=0;pointerEvents=0;fillColor=#eeeeee;points=[[0,0.5],[1,0.5]];portConstraint=eastwest;top=0;left=0;right=0;bottom=0;strokeColor=#36393d;" parent="C-vyLk0tnHw3VtMMgP7b-23" vertex="1">
          <mxGeometry y="180" width="510" height="20" as="geometry" />
        </mxCell>
        <mxCell id="yEf2gbcgYrwrFwAvnMjx-419" style="shape=partialRectangle;overflow=hidden;connectable=0;fillColor=#eeeeee;top=0;left=0;bottom=0;right=0;strokeColor=#36393d;" parent="yEf2gbcgYrwrFwAvnMjx-418" vertex="1">
          <mxGeometry width="30" height="20" as="geometry">
            <mxRectangle width="30" height="20" as="alternateBounds" />
          </mxGeometry>
        </mxCell>
        <mxCell id="yEf2gbcgYrwrFwAvnMjx-420" value="img" style="shape=partialRectangle;overflow=hidden;connectable=0;fillColor=#eeeeee;top=0;left=0;bottom=0;right=0;align=left;spacingLeft=6;strokeColor=#36393d;" parent="yEf2gbcgYrwrFwAvnMjx-418" vertex="1">
          <mxGeometry x="30" width="50" height="20" as="geometry">
            <mxRectangle width="50" height="20" as="alternateBounds" />
          </mxGeometry>
        </mxCell>
        <mxCell id="yEf2gbcgYrwrFwAvnMjx-421" value="varchar(45)" style="shape=partialRectangle;overflow=hidden;connectable=0;fillColor=#eeeeee;top=0;left=0;bottom=0;right=0;align=left;spacingLeft=6;strokeColor=#36393d;" parent="yEf2gbcgYrwrFwAvnMjx-418" vertex="1">
          <mxGeometry x="80" width="79" height="20" as="geometry">
            <mxRectangle width="79" height="20" as="alternateBounds" />
          </mxGeometry>
        </mxCell>
        <mxCell id="yEf2gbcgYrwrFwAvnMjx-422" value="-" style="shape=partialRectangle;overflow=hidden;connectable=0;fillColor=#eeeeee;top=0;left=0;bottom=0;right=0;align=left;spacingLeft=6;strokeColor=#36393d;" parent="yEf2gbcgYrwrFwAvnMjx-418" vertex="1">
          <mxGeometry x="159" width="31" height="20" as="geometry">
            <mxRectangle width="31" height="20" as="alternateBounds" />
          </mxGeometry>
        </mxCell>
        <mxCell id="yEf2gbcgYrwrFwAvnMjx-423" value="-" style="shape=partialRectangle;overflow=hidden;connectable=0;fillColor=#eeeeee;top=0;left=0;bottom=0;right=0;align=left;spacingLeft=6;strokeColor=#36393d;" parent="yEf2gbcgYrwrFwAvnMjx-418" vertex="1">
          <mxGeometry x="190" width="70" height="20" as="geometry">
            <mxRectangle width="70" height="20" as="alternateBounds" />
          </mxGeometry>
        </mxCell>
        <mxCell id="yEf2gbcgYrwrFwAvnMjx-424" value="src/img/pro/img.jpg" style="shape=partialRectangle;overflow=hidden;connectable=0;fillColor=#eeeeee;top=0;left=0;bottom=0;right=0;align=left;spacingLeft=6;strokeColor=#36393d;" parent="yEf2gbcgYrwrFwAvnMjx-418" vertex="1">
          <mxGeometry x="260" width="110" height="20" as="geometry">
            <mxRectangle width="110" height="20" as="alternateBounds" />
          </mxGeometry>
        </mxCell>
        <mxCell id="yEf2gbcgYrwrFwAvnMjx-425" value="프로필 이미지 주소" style="shape=partialRectangle;overflow=hidden;connectable=0;fillColor=#eeeeee;top=0;left=0;bottom=0;right=0;align=left;spacingLeft=6;strokeColor=#36393d;" parent="yEf2gbcgYrwrFwAvnMjx-418" vertex="1">
          <mxGeometry x="370" width="140" height="20" as="geometry">
            <mxRectangle width="140" height="20" as="alternateBounds" />
          </mxGeometry>
        </mxCell>
        <object label="REPO(저장소)" idx="" id="yEf2gbcgYrwrFwAvnMjx-303">
          <mxCell style="shape=table;startSize=30;container=1;collapsible=1;childLayout=tableLayout;fixedRows=1;rowLines=0;fontStyle=1;align=center;resizeLast=1;fillColor=#cce5ff;strokeColor=#36393d;fontSize=18;" parent="1" vertex="1">
            <mxGeometry x="-1230" y="-970" width="510" height="160" as="geometry" />
          </mxCell>
        </object>
        <mxCell id="yEf2gbcgYrwrFwAvnMjx-304" value="" style="shape=partialRectangle;collapsible=0;dropTarget=0;pointerEvents=0;fillColor=#eeeeee;points=[[0,0.5],[1,0.5]];portConstraint=eastwest;top=0;left=0;right=0;bottom=1;strokeColor=#36393d;" parent="yEf2gbcgYrwrFwAvnMjx-303" vertex="1">
          <mxGeometry y="30" width="510" height="30" as="geometry" />
        </mxCell>
        <mxCell id="yEf2gbcgYrwrFwAvnMjx-305" value="KEY" style="shape=partialRectangle;overflow=hidden;connectable=0;fillColor=#eeeeee;top=0;left=0;bottom=0;right=0;fontStyle=1;strokeColor=#36393d;" parent="yEf2gbcgYrwrFwAvnMjx-304" vertex="1">
          <mxGeometry width="30" height="30" as="geometry">
            <mxRectangle width="30" height="30" as="alternateBounds" />
          </mxGeometry>
        </mxCell>
        <mxCell id="yEf2gbcgYrwrFwAvnMjx-306" value="ATT" style="shape=partialRectangle;overflow=hidden;connectable=0;fillColor=#eeeeee;top=0;left=0;bottom=0;right=0;align=left;spacingLeft=6;fontStyle=5;strokeColor=#36393d;" parent="yEf2gbcgYrwrFwAvnMjx-304" vertex="1">
          <mxGeometry x="30" width="70" height="30" as="geometry">
            <mxRectangle width="70" height="30" as="alternateBounds" />
          </mxGeometry>
        </mxCell>
        <mxCell id="yEf2gbcgYrwrFwAvnMjx-307" value="DATA" style="shape=partialRectangle;overflow=hidden;connectable=0;fillColor=#eeeeee;top=0;left=0;bottom=0;right=0;align=left;spacingLeft=6;fontStyle=5;strokeColor=#36393d;" parent="yEf2gbcgYrwrFwAvnMjx-304" vertex="1">
          <mxGeometry x="100" width="70" height="30" as="geometry">
            <mxRectangle width="70" height="30" as="alternateBounds" />
          </mxGeometry>
        </mxCell>
        <mxCell id="yEf2gbcgYrwrFwAvnMjx-308" value="NN" style="shape=partialRectangle;overflow=hidden;connectable=0;fillColor=#eeeeee;top=0;left=0;bottom=0;right=0;align=left;spacingLeft=6;fontStyle=5;strokeColor=#36393d;" parent="yEf2gbcgYrwrFwAvnMjx-304" vertex="1">
          <mxGeometry x="170" width="30" height="30" as="geometry">
            <mxRectangle width="30" height="30" as="alternateBounds" />
          </mxGeometry>
        </mxCell>
        <mxCell id="yEf2gbcgYrwrFwAvnMjx-309" value="DEFAULT" style="shape=partialRectangle;overflow=hidden;connectable=0;fillColor=#eeeeee;top=0;left=0;bottom=0;right=0;align=left;spacingLeft=6;fontStyle=5;strokeColor=#36393d;" parent="yEf2gbcgYrwrFwAvnMjx-304" vertex="1">
          <mxGeometry x="200" width="60" height="30" as="geometry">
            <mxRectangle width="60" height="30" as="alternateBounds" />
          </mxGeometry>
        </mxCell>
        <mxCell id="yEf2gbcgYrwrFwAvnMjx-310" value="EX" style="shape=partialRectangle;overflow=hidden;connectable=0;fillColor=#eeeeee;top=0;left=0;bottom=0;right=0;align=left;spacingLeft=6;fontStyle=5;strokeColor=#36393d;" parent="yEf2gbcgYrwrFwAvnMjx-304" vertex="1">
          <mxGeometry x="260" width="110" height="30" as="geometry">
            <mxRectangle width="110" height="30" as="alternateBounds" />
          </mxGeometry>
        </mxCell>
        <mxCell id="yEf2gbcgYrwrFwAvnMjx-311" value="설명" style="shape=partialRectangle;overflow=hidden;connectable=0;fillColor=#eeeeee;top=0;left=0;bottom=0;right=0;align=left;spacingLeft=6;fontStyle=5;strokeColor=#36393d;" parent="yEf2gbcgYrwrFwAvnMjx-304" vertex="1">
          <mxGeometry x="370" width="140" height="30" as="geometry">
            <mxRectangle width="140" height="30" as="alternateBounds" />
          </mxGeometry>
        </mxCell>
        <mxCell id="yEf2gbcgYrwrFwAvnMjx-312" style="shape=partialRectangle;collapsible=0;dropTarget=0;pointerEvents=0;fillColor=#eeeeee;points=[[0,0.5],[1,0.5]];portConstraint=eastwest;top=0;left=0;right=0;bottom=0;strokeColor=#36393d;" parent="yEf2gbcgYrwrFwAvnMjx-303" vertex="1">
          <mxGeometry y="60" width="510" height="20" as="geometry" />
        </mxCell>
        <mxCell id="yEf2gbcgYrwrFwAvnMjx-313" value="pk" style="shape=partialRectangle;overflow=hidden;connectable=0;fillColor=#eeeeee;top=0;left=0;bottom=0;right=0;strokeColor=#36393d;" parent="yEf2gbcgYrwrFwAvnMjx-312" vertex="1">
          <mxGeometry width="30" height="20" as="geometry">
            <mxRectangle width="30" height="20" as="alternateBounds" />
          </mxGeometry>
        </mxCell>
        <mxCell id="yEf2gbcgYrwrFwAvnMjx-314" value="idx" style="shape=partialRectangle;overflow=hidden;connectable=0;fillColor=#eeeeee;top=0;left=0;bottom=0;right=0;align=left;spacingLeft=6;strokeColor=#36393d;" parent="yEf2gbcgYrwrFwAvnMjx-312" vertex="1">
          <mxGeometry x="30" width="70" height="20" as="geometry">
            <mxRectangle width="70" height="20" as="alternateBounds" />
          </mxGeometry>
        </mxCell>
        <mxCell id="yEf2gbcgYrwrFwAvnMjx-315" value="int" style="shape=partialRectangle;overflow=hidden;connectable=0;fillColor=#eeeeee;top=0;left=0;bottom=0;right=0;align=left;spacingLeft=6;strokeColor=#36393d;" parent="yEf2gbcgYrwrFwAvnMjx-312" vertex="1">
          <mxGeometry x="100" width="70" height="20" as="geometry">
            <mxRectangle width="70" height="20" as="alternateBounds" />
          </mxGeometry>
        </mxCell>
        <mxCell id="yEf2gbcgYrwrFwAvnMjx-316" value="nn" style="shape=partialRectangle;overflow=hidden;connectable=0;fillColor=#eeeeee;top=0;left=0;bottom=0;right=0;align=left;spacingLeft=6;strokeColor=#36393d;" parent="yEf2gbcgYrwrFwAvnMjx-312" vertex="1">
          <mxGeometry x="170" width="30" height="20" as="geometry">
            <mxRectangle width="30" height="20" as="alternateBounds" />
          </mxGeometry>
        </mxCell>
        <mxCell id="yEf2gbcgYrwrFwAvnMjx-317" value="auto indx" style="shape=partialRectangle;overflow=hidden;connectable=0;fillColor=#eeeeee;top=0;left=0;bottom=0;right=0;align=left;spacingLeft=6;strokeColor=#36393d;" parent="yEf2gbcgYrwrFwAvnMjx-312" vertex="1">
          <mxGeometry x="200" width="60" height="20" as="geometry">
            <mxRectangle width="60" height="20" as="alternateBounds" />
          </mxGeometry>
        </mxCell>
        <mxCell id="yEf2gbcgYrwrFwAvnMjx-318" value="1" style="shape=partialRectangle;overflow=hidden;connectable=0;fillColor=#eeeeee;top=0;left=0;bottom=0;right=0;align=left;spacingLeft=6;strokeColor=#36393d;" parent="yEf2gbcgYrwrFwAvnMjx-312" vertex="1">
          <mxGeometry x="260" width="110" height="20" as="geometry">
            <mxRectangle width="110" height="20" as="alternateBounds" />
          </mxGeometry>
        </mxCell>
        <mxCell id="yEf2gbcgYrwrFwAvnMjx-319" value="저장소번호" style="shape=partialRectangle;overflow=hidden;connectable=0;fillColor=#eeeeee;top=0;left=0;bottom=0;right=0;align=left;spacingLeft=6;strokeColor=#36393d;" parent="yEf2gbcgYrwrFwAvnMjx-312" vertex="1">
          <mxGeometry x="370" width="140" height="20" as="geometry">
            <mxRectangle width="140" height="20" as="alternateBounds" />
          </mxGeometry>
        </mxCell>
        <mxCell id="yEf2gbcgYrwrFwAvnMjx-328" style="shape=partialRectangle;collapsible=0;dropTarget=0;pointerEvents=0;fillColor=#eeeeee;points=[[0,0.5],[1,0.5]];portConstraint=eastwest;top=0;left=0;right=0;bottom=0;strokeColor=#36393d;" parent="yEf2gbcgYrwrFwAvnMjx-303" vertex="1">
          <mxGeometry y="80" width="510" height="20" as="geometry" />
        </mxCell>
        <mxCell id="yEf2gbcgYrwrFwAvnMjx-329" style="shape=partialRectangle;overflow=hidden;connectable=0;fillColor=#eeeeee;top=0;left=0;bottom=0;right=0;strokeColor=#36393d;" parent="yEf2gbcgYrwrFwAvnMjx-328" vertex="1">
          <mxGeometry width="30" height="20" as="geometry">
            <mxRectangle width="30" height="20" as="alternateBounds" />
          </mxGeometry>
        </mxCell>
        <mxCell id="yEf2gbcgYrwrFwAvnMjx-330" value="name" style="shape=partialRectangle;overflow=hidden;connectable=0;fillColor=#eeeeee;top=0;left=0;bottom=0;right=0;align=left;spacingLeft=6;strokeColor=#36393d;" parent="yEf2gbcgYrwrFwAvnMjx-328" vertex="1">
          <mxGeometry x="30" width="70" height="20" as="geometry">
            <mxRectangle width="70" height="20" as="alternateBounds" />
          </mxGeometry>
        </mxCell>
        <mxCell id="yEf2gbcgYrwrFwAvnMjx-331" value="varchar(45)" style="shape=partialRectangle;overflow=hidden;connectable=0;fillColor=#eeeeee;top=0;left=0;bottom=0;right=0;align=left;spacingLeft=6;strokeColor=#36393d;" parent="yEf2gbcgYrwrFwAvnMjx-328" vertex="1">
          <mxGeometry x="100" width="70" height="20" as="geometry">
            <mxRectangle width="70" height="20" as="alternateBounds" />
          </mxGeometry>
        </mxCell>
        <mxCell id="yEf2gbcgYrwrFwAvnMjx-332" value="nn" style="shape=partialRectangle;overflow=hidden;connectable=0;fillColor=#eeeeee;top=0;left=0;bottom=0;right=0;align=left;spacingLeft=6;strokeColor=#36393d;" parent="yEf2gbcgYrwrFwAvnMjx-328" vertex="1">
          <mxGeometry x="170" width="30" height="20" as="geometry">
            <mxRectangle width="30" height="20" as="alternateBounds" />
          </mxGeometry>
        </mxCell>
        <mxCell id="yEf2gbcgYrwrFwAvnMjx-333" value="-" style="shape=partialRectangle;overflow=hidden;connectable=0;fillColor=#eeeeee;top=0;left=0;bottom=0;right=0;align=left;spacingLeft=6;strokeColor=#36393d;" parent="yEf2gbcgYrwrFwAvnMjx-328" vertex="1">
          <mxGeometry x="200" width="60" height="20" as="geometry">
            <mxRectangle width="60" height="20" as="alternateBounds" />
          </mxGeometry>
        </mxCell>
        <mxCell id="yEf2gbcgYrwrFwAvnMjx-334" value="JavaStudy" style="shape=partialRectangle;overflow=hidden;connectable=0;fillColor=#eeeeee;top=0;left=0;bottom=0;right=0;align=left;spacingLeft=6;strokeColor=#36393d;" parent="yEf2gbcgYrwrFwAvnMjx-328" vertex="1">
          <mxGeometry x="260" width="110" height="20" as="geometry">
            <mxRectangle width="110" height="20" as="alternateBounds" />
          </mxGeometry>
        </mxCell>
        <mxCell id="yEf2gbcgYrwrFwAvnMjx-335" value="repository 이름" style="shape=partialRectangle;overflow=hidden;connectable=0;fillColor=#eeeeee;top=0;left=0;bottom=0;right=0;align=left;spacingLeft=6;strokeColor=#36393d;" parent="yEf2gbcgYrwrFwAvnMjx-328" vertex="1">
          <mxGeometry x="370" width="140" height="20" as="geometry">
            <mxRectangle width="140" height="20" as="alternateBounds" />
          </mxGeometry>
        </mxCell>
        <mxCell id="yEf2gbcgYrwrFwAvnMjx-352" style="shape=partialRectangle;collapsible=0;dropTarget=0;pointerEvents=0;fillColor=#eeeeee;points=[[0,0.5],[1,0.5]];portConstraint=eastwest;top=0;left=0;right=0;bottom=0;strokeColor=#36393d;" parent="yEf2gbcgYrwrFwAvnMjx-303" vertex="1">
          <mxGeometry y="100" width="510" height="20" as="geometry" />
        </mxCell>
        <mxCell id="yEf2gbcgYrwrFwAvnMjx-353" style="shape=partialRectangle;overflow=hidden;connectable=0;fillColor=#eeeeee;top=0;left=0;bottom=0;right=0;strokeColor=#36393d;" parent="yEf2gbcgYrwrFwAvnMjx-352" vertex="1">
          <mxGeometry width="30" height="20" as="geometry">
            <mxRectangle width="30" height="20" as="alternateBounds" />
          </mxGeometry>
        </mxCell>
        <mxCell id="yEf2gbcgYrwrFwAvnMjx-354" value="createDate" style="shape=partialRectangle;overflow=hidden;connectable=0;fillColor=#eeeeee;top=0;left=0;bottom=0;right=0;align=left;spacingLeft=6;strokeColor=#36393d;" parent="yEf2gbcgYrwrFwAvnMjx-352" vertex="1">
          <mxGeometry x="30" width="70" height="20" as="geometry">
            <mxRectangle width="70" height="20" as="alternateBounds" />
          </mxGeometry>
        </mxCell>
        <mxCell id="yEf2gbcgYrwrFwAvnMjx-355" value="timestamp" style="shape=partialRectangle;overflow=hidden;connectable=0;fillColor=#eeeeee;top=0;left=0;bottom=0;right=0;align=left;spacingLeft=6;strokeColor=#36393d;" parent="yEf2gbcgYrwrFwAvnMjx-352" vertex="1">
          <mxGeometry x="100" width="70" height="20" as="geometry">
            <mxRectangle width="70" height="20" as="alternateBounds" />
          </mxGeometry>
        </mxCell>
        <mxCell id="yEf2gbcgYrwrFwAvnMjx-356" value="nn" style="shape=partialRectangle;overflow=hidden;connectable=0;fillColor=#eeeeee;top=0;left=0;bottom=0;right=0;align=left;spacingLeft=6;strokeColor=#36393d;" parent="yEf2gbcgYrwrFwAvnMjx-352" vertex="1">
          <mxGeometry x="170" width="30" height="20" as="geometry">
            <mxRectangle width="30" height="20" as="alternateBounds" />
          </mxGeometry>
        </mxCell>
        <mxCell id="yEf2gbcgYrwrFwAvnMjx-357" value="now()" style="shape=partialRectangle;overflow=hidden;connectable=0;fillColor=#eeeeee;top=0;left=0;bottom=0;right=0;align=left;spacingLeft=6;strokeColor=#36393d;" parent="yEf2gbcgYrwrFwAvnMjx-352" vertex="1">
          <mxGeometry x="200" width="60" height="20" as="geometry">
            <mxRectangle width="60" height="20" as="alternateBounds" />
          </mxGeometry>
        </mxCell>
        <mxCell id="yEf2gbcgYrwrFwAvnMjx-358" value="2022-10-17 11:13:46" style="shape=partialRectangle;overflow=hidden;connectable=0;fillColor=#eeeeee;top=0;left=0;bottom=0;right=0;align=left;spacingLeft=6;strokeColor=#36393d;" parent="yEf2gbcgYrwrFwAvnMjx-352" vertex="1">
          <mxGeometry x="260" width="110" height="20" as="geometry">
            <mxRectangle width="110" height="20" as="alternateBounds" />
          </mxGeometry>
        </mxCell>
        <mxCell id="yEf2gbcgYrwrFwAvnMjx-359" value="생성일" style="shape=partialRectangle;overflow=hidden;connectable=0;fillColor=#eeeeee;top=0;left=0;bottom=0;right=0;align=left;spacingLeft=6;strokeColor=#36393d;" parent="yEf2gbcgYrwrFwAvnMjx-352" vertex="1">
          <mxGeometry x="370" width="140" height="20" as="geometry">
            <mxRectangle width="140" height="20" as="alternateBounds" />
          </mxGeometry>
        </mxCell>
        <mxCell id="yEf2gbcgYrwrFwAvnMjx-360" style="shape=partialRectangle;collapsible=0;dropTarget=0;pointerEvents=0;fillColor=#eeeeee;points=[[0,0.5],[1,0.5]];portConstraint=eastwest;top=0;left=0;right=0;bottom=0;strokeColor=#36393d;" parent="yEf2gbcgYrwrFwAvnMjx-303" vertex="1">
          <mxGeometry y="120" width="510" height="20" as="geometry" />
        </mxCell>
        <mxCell id="yEf2gbcgYrwrFwAvnMjx-361" style="shape=partialRectangle;overflow=hidden;connectable=0;fillColor=#eeeeee;top=0;left=0;bottom=0;right=0;strokeColor=#36393d;" parent="yEf2gbcgYrwrFwAvnMjx-360" vertex="1">
          <mxGeometry width="30" height="20" as="geometry">
            <mxRectangle width="30" height="20" as="alternateBounds" />
          </mxGeometry>
        </mxCell>
        <mxCell id="yEf2gbcgYrwrFwAvnMjx-362" value="public" style="shape=partialRectangle;overflow=hidden;connectable=0;fillColor=#eeeeee;top=0;left=0;bottom=0;right=0;align=left;spacingLeft=6;strokeColor=#36393d;" parent="yEf2gbcgYrwrFwAvnMjx-360" vertex="1">
          <mxGeometry x="30" width="70" height="20" as="geometry">
            <mxRectangle width="70" height="20" as="alternateBounds" />
          </mxGeometry>
        </mxCell>
        <mxCell id="yEf2gbcgYrwrFwAvnMjx-363" value="tinyint(1)" style="shape=partialRectangle;overflow=hidden;connectable=0;fillColor=#eeeeee;top=0;left=0;bottom=0;right=0;align=left;spacingLeft=6;strokeColor=#36393d;" parent="yEf2gbcgYrwrFwAvnMjx-360" vertex="1">
          <mxGeometry x="100" width="70" height="20" as="geometry">
            <mxRectangle width="70" height="20" as="alternateBounds" />
          </mxGeometry>
        </mxCell>
        <mxCell id="yEf2gbcgYrwrFwAvnMjx-364" value="nn" style="shape=partialRectangle;overflow=hidden;connectable=0;fillColor=#eeeeee;top=0;left=0;bottom=0;right=0;align=left;spacingLeft=6;strokeColor=#36393d;" parent="yEf2gbcgYrwrFwAvnMjx-360" vertex="1">
          <mxGeometry x="170" width="30" height="20" as="geometry">
            <mxRectangle width="30" height="20" as="alternateBounds" />
          </mxGeometry>
        </mxCell>
        <mxCell id="yEf2gbcgYrwrFwAvnMjx-365" value="-" style="shape=partialRectangle;overflow=hidden;connectable=0;fillColor=#eeeeee;top=0;left=0;bottom=0;right=0;align=left;spacingLeft=6;strokeColor=#36393d;" parent="yEf2gbcgYrwrFwAvnMjx-360" vertex="1">
          <mxGeometry x="200" width="60" height="20" as="geometry">
            <mxRectangle width="60" height="20" as="alternateBounds" />
          </mxGeometry>
        </mxCell>
        <mxCell id="yEf2gbcgYrwrFwAvnMjx-366" value="1" style="shape=partialRectangle;overflow=hidden;connectable=0;fillColor=#eeeeee;top=0;left=0;bottom=0;right=0;align=left;spacingLeft=6;strokeColor=#36393d;" parent="yEf2gbcgYrwrFwAvnMjx-360" vertex="1">
          <mxGeometry x="260" width="110" height="20" as="geometry">
            <mxRectangle width="110" height="20" as="alternateBounds" />
          </mxGeometry>
        </mxCell>
        <mxCell id="yEf2gbcgYrwrFwAvnMjx-367" value="공개여부" style="shape=partialRectangle;overflow=hidden;connectable=0;fillColor=#eeeeee;top=0;left=0;bottom=0;right=0;align=left;spacingLeft=6;strokeColor=#36393d;" parent="yEf2gbcgYrwrFwAvnMjx-360" vertex="1">
          <mxGeometry x="370" width="140" height="20" as="geometry">
            <mxRectangle width="140" height="20" as="alternateBounds" />
          </mxGeometry>
        </mxCell>
        <mxCell id="jV_eMt8lWbeipAzmGlRH-1" style="shape=partialRectangle;collapsible=0;dropTarget=0;pointerEvents=0;fillColor=#eeeeee;points=[[0,0.5],[1,0.5]];portConstraint=eastwest;top=0;left=0;right=0;bottom=0;strokeColor=#36393d;" vertex="1" parent="yEf2gbcgYrwrFwAvnMjx-303">
          <mxGeometry y="140" width="510" height="20" as="geometry" />
        </mxCell>
        <mxCell id="jV_eMt8lWbeipAzmGlRH-2" style="shape=partialRectangle;overflow=hidden;connectable=0;fillColor=#eeeeee;top=0;left=0;bottom=0;right=0;strokeColor=#36393d;" vertex="1" parent="jV_eMt8lWbeipAzmGlRH-1">
          <mxGeometry width="30" height="20" as="geometry">
            <mxRectangle width="30" height="20" as="alternateBounds" />
          </mxGeometry>
        </mxCell>
        <mxCell id="jV_eMt8lWbeipAzmGlRH-3" value="owner" style="shape=partialRectangle;overflow=hidden;connectable=0;fillColor=#eeeeee;top=0;left=0;bottom=0;right=0;align=left;spacingLeft=6;strokeColor=#36393d;" vertex="1" parent="jV_eMt8lWbeipAzmGlRH-1">
          <mxGeometry x="30" width="70" height="20" as="geometry">
            <mxRectangle width="70" height="20" as="alternateBounds" />
          </mxGeometry>
        </mxCell>
        <mxCell id="jV_eMt8lWbeipAzmGlRH-4" value="int" style="shape=partialRectangle;overflow=hidden;connectable=0;fillColor=#eeeeee;top=0;left=0;bottom=0;right=0;align=left;spacingLeft=6;strokeColor=#36393d;" vertex="1" parent="jV_eMt8lWbeipAzmGlRH-1">
          <mxGeometry x="100" width="70" height="20" as="geometry">
            <mxRectangle width="70" height="20" as="alternateBounds" />
          </mxGeometry>
        </mxCell>
        <mxCell id="jV_eMt8lWbeipAzmGlRH-5" value="nn" style="shape=partialRectangle;overflow=hidden;connectable=0;fillColor=#eeeeee;top=0;left=0;bottom=0;right=0;align=left;spacingLeft=6;strokeColor=#36393d;" vertex="1" parent="jV_eMt8lWbeipAzmGlRH-1">
          <mxGeometry x="170" width="30" height="20" as="geometry">
            <mxRectangle width="30" height="20" as="alternateBounds" />
          </mxGeometry>
        </mxCell>
        <mxCell id="jV_eMt8lWbeipAzmGlRH-6" style="shape=partialRectangle;overflow=hidden;connectable=0;fillColor=#eeeeee;top=0;left=0;bottom=0;right=0;align=left;spacingLeft=6;strokeColor=#36393d;" vertex="1" parent="jV_eMt8lWbeipAzmGlRH-1">
          <mxGeometry x="200" width="60" height="20" as="geometry">
            <mxRectangle width="60" height="20" as="alternateBounds" />
          </mxGeometry>
        </mxCell>
        <mxCell id="jV_eMt8lWbeipAzmGlRH-7" value="3" style="shape=partialRectangle;overflow=hidden;connectable=0;fillColor=#eeeeee;top=0;left=0;bottom=0;right=0;align=left;spacingLeft=6;strokeColor=#36393d;" vertex="1" parent="jV_eMt8lWbeipAzmGlRH-1">
          <mxGeometry x="260" width="110" height="20" as="geometry">
            <mxRectangle width="110" height="20" as="alternateBounds" />
          </mxGeometry>
        </mxCell>
        <mxCell id="jV_eMt8lWbeipAzmGlRH-8" value="소유자" style="shape=partialRectangle;overflow=hidden;connectable=0;fillColor=#eeeeee;top=0;left=0;bottom=0;right=0;align=left;spacingLeft=6;strokeColor=#36393d;" vertex="1" parent="jV_eMt8lWbeipAzmGlRH-1">
          <mxGeometry x="370" width="140" height="20" as="geometry">
            <mxRectangle width="140" height="20" as="alternateBounds" />
          </mxGeometry>
        </mxCell>
        <object label="PUSH" idx="" id="yEf2gbcgYrwrFwAvnMjx-369">
          <mxCell style="shape=table;startSize=30;container=1;collapsible=1;childLayout=tableLayout;fixedRows=1;rowLines=0;fontStyle=1;align=center;resizeLast=1;fillColor=#cce5ff;strokeColor=#36393d;fontSize=18;" parent="1" vertex="1">
            <mxGeometry x="-590" y="-1000" width="510" height="200" as="geometry" />
          </mxCell>
        </object>
        <mxCell id="yEf2gbcgYrwrFwAvnMjx-370" value="" style="shape=partialRectangle;collapsible=0;dropTarget=0;pointerEvents=0;fillColor=#eeeeee;points=[[0,0.5],[1,0.5]];portConstraint=eastwest;top=0;left=0;right=0;bottom=1;strokeColor=#36393d;" parent="yEf2gbcgYrwrFwAvnMjx-369" vertex="1">
          <mxGeometry y="30" width="510" height="30" as="geometry" />
        </mxCell>
        <mxCell id="yEf2gbcgYrwrFwAvnMjx-371" value="KEY" style="shape=partialRectangle;overflow=hidden;connectable=0;fillColor=#eeeeee;top=0;left=0;bottom=0;right=0;fontStyle=1;strokeColor=#36393d;" parent="yEf2gbcgYrwrFwAvnMjx-370" vertex="1">
          <mxGeometry width="30" height="30" as="geometry">
            <mxRectangle width="30" height="30" as="alternateBounds" />
          </mxGeometry>
        </mxCell>
        <mxCell id="yEf2gbcgYrwrFwAvnMjx-372" value="ATT" style="shape=partialRectangle;overflow=hidden;connectable=0;fillColor=#eeeeee;top=0;left=0;bottom=0;right=0;align=left;spacingLeft=6;fontStyle=5;strokeColor=#36393d;" parent="yEf2gbcgYrwrFwAvnMjx-370" vertex="1">
          <mxGeometry x="30" width="70" height="30" as="geometry">
            <mxRectangle width="70" height="30" as="alternateBounds" />
          </mxGeometry>
        </mxCell>
        <mxCell id="yEf2gbcgYrwrFwAvnMjx-373" value="DATA" style="shape=partialRectangle;overflow=hidden;connectable=0;fillColor=#eeeeee;top=0;left=0;bottom=0;right=0;align=left;spacingLeft=6;fontStyle=5;strokeColor=#36393d;" parent="yEf2gbcgYrwrFwAvnMjx-370" vertex="1">
          <mxGeometry x="100" width="70" height="30" as="geometry">
            <mxRectangle width="70" height="30" as="alternateBounds" />
          </mxGeometry>
        </mxCell>
        <mxCell id="yEf2gbcgYrwrFwAvnMjx-374" value="NN" style="shape=partialRectangle;overflow=hidden;connectable=0;fillColor=#eeeeee;top=0;left=0;bottom=0;right=0;align=left;spacingLeft=6;fontStyle=5;strokeColor=#36393d;" parent="yEf2gbcgYrwrFwAvnMjx-370" vertex="1">
          <mxGeometry x="170" width="30" height="30" as="geometry">
            <mxRectangle width="30" height="30" as="alternateBounds" />
          </mxGeometry>
        </mxCell>
        <mxCell id="yEf2gbcgYrwrFwAvnMjx-375" value="DEFAULT" style="shape=partialRectangle;overflow=hidden;connectable=0;fillColor=#eeeeee;top=0;left=0;bottom=0;right=0;align=left;spacingLeft=6;fontStyle=5;strokeColor=#36393d;" parent="yEf2gbcgYrwrFwAvnMjx-370" vertex="1">
          <mxGeometry x="200" width="60" height="30" as="geometry">
            <mxRectangle width="60" height="30" as="alternateBounds" />
          </mxGeometry>
        </mxCell>
        <mxCell id="yEf2gbcgYrwrFwAvnMjx-376" value="EX" style="shape=partialRectangle;overflow=hidden;connectable=0;fillColor=#eeeeee;top=0;left=0;bottom=0;right=0;align=left;spacingLeft=6;fontStyle=5;strokeColor=#36393d;" parent="yEf2gbcgYrwrFwAvnMjx-370" vertex="1">
          <mxGeometry x="260" width="110" height="30" as="geometry">
            <mxRectangle width="110" height="30" as="alternateBounds" />
          </mxGeometry>
        </mxCell>
        <mxCell id="yEf2gbcgYrwrFwAvnMjx-377" value="설명" style="shape=partialRectangle;overflow=hidden;connectable=0;fillColor=#eeeeee;top=0;left=0;bottom=0;right=0;align=left;spacingLeft=6;fontStyle=5;strokeColor=#36393d;" parent="yEf2gbcgYrwrFwAvnMjx-370" vertex="1">
          <mxGeometry x="370" width="140" height="30" as="geometry">
            <mxRectangle width="140" height="30" as="alternateBounds" />
          </mxGeometry>
        </mxCell>
        <mxCell id="yEf2gbcgYrwrFwAvnMjx-378" style="shape=partialRectangle;collapsible=0;dropTarget=0;pointerEvents=0;fillColor=#eeeeee;points=[[0,0.5],[1,0.5]];portConstraint=eastwest;top=0;left=0;right=0;bottom=0;strokeColor=#36393d;" parent="yEf2gbcgYrwrFwAvnMjx-369" vertex="1">
          <mxGeometry y="60" width="510" height="20" as="geometry" />
        </mxCell>
        <mxCell id="yEf2gbcgYrwrFwAvnMjx-379" value="pk" style="shape=partialRectangle;overflow=hidden;connectable=0;fillColor=#eeeeee;top=0;left=0;bottom=0;right=0;strokeColor=#36393d;" parent="yEf2gbcgYrwrFwAvnMjx-378" vertex="1">
          <mxGeometry width="30" height="20" as="geometry">
            <mxRectangle width="30" height="20" as="alternateBounds" />
          </mxGeometry>
        </mxCell>
        <mxCell id="yEf2gbcgYrwrFwAvnMjx-380" value="token" style="shape=partialRectangle;overflow=hidden;connectable=0;fillColor=#eeeeee;top=0;left=0;bottom=0;right=0;align=left;spacingLeft=6;strokeColor=#36393d;" parent="yEf2gbcgYrwrFwAvnMjx-378" vertex="1">
          <mxGeometry x="30" width="70" height="20" as="geometry">
            <mxRectangle width="70" height="20" as="alternateBounds" />
          </mxGeometry>
        </mxCell>
        <mxCell id="yEf2gbcgYrwrFwAvnMjx-381" value="varchar(45)" style="shape=partialRectangle;overflow=hidden;connectable=0;fillColor=#eeeeee;top=0;left=0;bottom=0;right=0;align=left;spacingLeft=6;strokeColor=#36393d;" parent="yEf2gbcgYrwrFwAvnMjx-378" vertex="1">
          <mxGeometry x="100" width="70" height="20" as="geometry">
            <mxRectangle width="70" height="20" as="alternateBounds" />
          </mxGeometry>
        </mxCell>
        <mxCell id="yEf2gbcgYrwrFwAvnMjx-382" value="nn" style="shape=partialRectangle;overflow=hidden;connectable=0;fillColor=#eeeeee;top=0;left=0;bottom=0;right=0;align=left;spacingLeft=6;strokeColor=#36393d;" parent="yEf2gbcgYrwrFwAvnMjx-378" vertex="1">
          <mxGeometry x="170" width="30" height="20" as="geometry">
            <mxRectangle width="30" height="20" as="alternateBounds" />
          </mxGeometry>
        </mxCell>
        <mxCell id="yEf2gbcgYrwrFwAvnMjx-383" value="-" style="shape=partialRectangle;overflow=hidden;connectable=0;fillColor=#eeeeee;top=0;left=0;bottom=0;right=0;align=left;spacingLeft=6;strokeColor=#36393d;" parent="yEf2gbcgYrwrFwAvnMjx-378" vertex="1">
          <mxGeometry x="200" width="60" height="20" as="geometry">
            <mxRectangle width="60" height="20" as="alternateBounds" />
          </mxGeometry>
        </mxCell>
        <mxCell id="yEf2gbcgYrwrFwAvnMjx-384" value="bx32sg3ko" style="shape=partialRectangle;overflow=hidden;connectable=0;fillColor=#eeeeee;top=0;left=0;bottom=0;right=0;align=left;spacingLeft=6;strokeColor=#36393d;" parent="yEf2gbcgYrwrFwAvnMjx-378" vertex="1">
          <mxGeometry x="260" width="110" height="20" as="geometry">
            <mxRectangle width="110" height="20" as="alternateBounds" />
          </mxGeometry>
        </mxCell>
        <mxCell id="yEf2gbcgYrwrFwAvnMjx-385" value="push의 고유 토큰" style="shape=partialRectangle;overflow=hidden;connectable=0;fillColor=#eeeeee;top=0;left=0;bottom=0;right=0;align=left;spacingLeft=6;strokeColor=#36393d;" parent="yEf2gbcgYrwrFwAvnMjx-378" vertex="1">
          <mxGeometry x="370" width="140" height="20" as="geometry">
            <mxRectangle width="140" height="20" as="alternateBounds" />
          </mxGeometry>
        </mxCell>
        <mxCell id="yEf2gbcgYrwrFwAvnMjx-386" value="" style="shape=partialRectangle;collapsible=0;dropTarget=0;pointerEvents=0;fillColor=#eeeeee;points=[[0,0.5],[1,0.5]];portConstraint=eastwest;top=0;left=0;right=0;bottom=0;strokeColor=#36393d;" parent="yEf2gbcgYrwrFwAvnMjx-369" vertex="1">
          <mxGeometry y="80" width="510" height="20" as="geometry" />
        </mxCell>
        <mxCell id="yEf2gbcgYrwrFwAvnMjx-387" value="fk" style="shape=partialRectangle;overflow=hidden;connectable=0;fillColor=#eeeeee;top=0;left=0;bottom=0;right=0;strokeColor=#36393d;" parent="yEf2gbcgYrwrFwAvnMjx-386" vertex="1">
          <mxGeometry width="30" height="20" as="geometry">
            <mxRectangle width="30" height="20" as="alternateBounds" />
          </mxGeometry>
        </mxCell>
        <mxCell id="yEf2gbcgYrwrFwAvnMjx-388" value="member" style="shape=partialRectangle;overflow=hidden;connectable=0;fillColor=#eeeeee;top=0;left=0;bottom=0;right=0;align=left;spacingLeft=6;strokeColor=#36393d;" parent="yEf2gbcgYrwrFwAvnMjx-386" vertex="1">
          <mxGeometry x="30" width="70" height="20" as="geometry">
            <mxRectangle width="70" height="20" as="alternateBounds" />
          </mxGeometry>
        </mxCell>
        <mxCell id="yEf2gbcgYrwrFwAvnMjx-389" value="int" style="shape=partialRectangle;overflow=hidden;connectable=0;fillColor=#eeeeee;top=0;left=0;bottom=0;right=0;align=left;spacingLeft=6;strokeColor=#36393d;" parent="yEf2gbcgYrwrFwAvnMjx-386" vertex="1">
          <mxGeometry x="100" width="70" height="20" as="geometry">
            <mxRectangle width="70" height="20" as="alternateBounds" />
          </mxGeometry>
        </mxCell>
        <mxCell id="yEf2gbcgYrwrFwAvnMjx-390" value="nn" style="shape=partialRectangle;overflow=hidden;connectable=0;fillColor=#eeeeee;top=0;left=0;bottom=0;right=0;align=left;spacingLeft=6;strokeColor=#36393d;" parent="yEf2gbcgYrwrFwAvnMjx-386" vertex="1">
          <mxGeometry x="170" width="30" height="20" as="geometry">
            <mxRectangle width="30" height="20" as="alternateBounds" />
          </mxGeometry>
        </mxCell>
        <mxCell id="yEf2gbcgYrwrFwAvnMjx-391" value="-" style="shape=partialRectangle;overflow=hidden;connectable=0;fillColor=#eeeeee;top=0;left=0;bottom=0;right=0;align=left;spacingLeft=6;strokeColor=#36393d;" parent="yEf2gbcgYrwrFwAvnMjx-386" vertex="1">
          <mxGeometry x="200" width="60" height="20" as="geometry">
            <mxRectangle width="60" height="20" as="alternateBounds" />
          </mxGeometry>
        </mxCell>
        <mxCell id="yEf2gbcgYrwrFwAvnMjx-392" value="10" style="shape=partialRectangle;overflow=hidden;connectable=0;fillColor=#eeeeee;top=0;left=0;bottom=0;right=0;align=left;spacingLeft=6;strokeColor=#36393d;" parent="yEf2gbcgYrwrFwAvnMjx-386" vertex="1">
          <mxGeometry x="260" width="110" height="20" as="geometry">
            <mxRectangle width="110" height="20" as="alternateBounds" />
          </mxGeometry>
        </mxCell>
        <mxCell id="yEf2gbcgYrwrFwAvnMjx-393" value="작성자(member-idx)" style="shape=partialRectangle;overflow=hidden;connectable=0;fillColor=#eeeeee;top=0;left=0;bottom=0;right=0;align=left;spacingLeft=6;strokeColor=#36393d;" parent="yEf2gbcgYrwrFwAvnMjx-386" vertex="1">
          <mxGeometry x="370" width="140" height="20" as="geometry">
            <mxRectangle width="140" height="20" as="alternateBounds" />
          </mxGeometry>
        </mxCell>
        <mxCell id="yEf2gbcgYrwrFwAvnMjx-394" style="shape=partialRectangle;collapsible=0;dropTarget=0;pointerEvents=0;fillColor=#eeeeee;points=[[0,0.5],[1,0.5]];portConstraint=eastwest;top=0;left=0;right=0;bottom=0;strokeColor=#36393d;" parent="yEf2gbcgYrwrFwAvnMjx-369" vertex="1">
          <mxGeometry y="100" width="510" height="20" as="geometry" />
        </mxCell>
        <mxCell id="yEf2gbcgYrwrFwAvnMjx-395" value="fk" style="shape=partialRectangle;overflow=hidden;connectable=0;fillColor=#eeeeee;top=0;left=0;bottom=0;right=0;strokeColor=#36393d;" parent="yEf2gbcgYrwrFwAvnMjx-394" vertex="1">
          <mxGeometry width="30" height="20" as="geometry">
            <mxRectangle width="30" height="20" as="alternateBounds" />
          </mxGeometry>
        </mxCell>
        <mxCell id="yEf2gbcgYrwrFwAvnMjx-396" value="repo" style="shape=partialRectangle;overflow=hidden;connectable=0;fillColor=#eeeeee;top=0;left=0;bottom=0;right=0;align=left;spacingLeft=6;strokeColor=#36393d;" parent="yEf2gbcgYrwrFwAvnMjx-394" vertex="1">
          <mxGeometry x="30" width="70" height="20" as="geometry">
            <mxRectangle width="70" height="20" as="alternateBounds" />
          </mxGeometry>
        </mxCell>
        <mxCell id="yEf2gbcgYrwrFwAvnMjx-397" value="int" style="shape=partialRectangle;overflow=hidden;connectable=0;fillColor=#eeeeee;top=0;left=0;bottom=0;right=0;align=left;spacingLeft=6;strokeColor=#36393d;" parent="yEf2gbcgYrwrFwAvnMjx-394" vertex="1">
          <mxGeometry x="100" width="70" height="20" as="geometry">
            <mxRectangle width="70" height="20" as="alternateBounds" />
          </mxGeometry>
        </mxCell>
        <mxCell id="yEf2gbcgYrwrFwAvnMjx-398" value="nn" style="shape=partialRectangle;overflow=hidden;connectable=0;fillColor=#eeeeee;top=0;left=0;bottom=0;right=0;align=left;spacingLeft=6;strokeColor=#36393d;" parent="yEf2gbcgYrwrFwAvnMjx-394" vertex="1">
          <mxGeometry x="170" width="30" height="20" as="geometry">
            <mxRectangle width="30" height="20" as="alternateBounds" />
          </mxGeometry>
        </mxCell>
        <mxCell id="yEf2gbcgYrwrFwAvnMjx-399" value="-" style="shape=partialRectangle;overflow=hidden;connectable=0;fillColor=#eeeeee;top=0;left=0;bottom=0;right=0;align=left;spacingLeft=6;strokeColor=#36393d;" parent="yEf2gbcgYrwrFwAvnMjx-394" vertex="1">
          <mxGeometry x="200" width="60" height="20" as="geometry">
            <mxRectangle width="60" height="20" as="alternateBounds" />
          </mxGeometry>
        </mxCell>
        <mxCell id="yEf2gbcgYrwrFwAvnMjx-400" value="1" style="shape=partialRectangle;overflow=hidden;connectable=0;fillColor=#eeeeee;top=0;left=0;bottom=0;right=0;align=left;spacingLeft=6;strokeColor=#36393d;" parent="yEf2gbcgYrwrFwAvnMjx-394" vertex="1">
          <mxGeometry x="260" width="110" height="20" as="geometry">
            <mxRectangle width="110" height="20" as="alternateBounds" />
          </mxGeometry>
        </mxCell>
        <mxCell id="yEf2gbcgYrwrFwAvnMjx-401" value="저장소 번호(repo-idx)" style="shape=partialRectangle;overflow=hidden;connectable=0;fillColor=#eeeeee;top=0;left=0;bottom=0;right=0;align=left;spacingLeft=6;strokeColor=#36393d;" parent="yEf2gbcgYrwrFwAvnMjx-394" vertex="1">
          <mxGeometry x="370" width="140" height="20" as="geometry">
            <mxRectangle width="140" height="20" as="alternateBounds" />
          </mxGeometry>
        </mxCell>
        <mxCell id="yEf2gbcgYrwrFwAvnMjx-402" style="shape=partialRectangle;collapsible=0;dropTarget=0;pointerEvents=0;fillColor=#eeeeee;points=[[0,0.5],[1,0.5]];portConstraint=eastwest;top=0;left=0;right=0;bottom=0;strokeColor=#36393d;" parent="yEf2gbcgYrwrFwAvnMjx-369" vertex="1">
          <mxGeometry y="120" width="510" height="20" as="geometry" />
        </mxCell>
        <mxCell id="yEf2gbcgYrwrFwAvnMjx-403" style="shape=partialRectangle;overflow=hidden;connectable=0;fillColor=#eeeeee;top=0;left=0;bottom=0;right=0;strokeColor=#36393d;" parent="yEf2gbcgYrwrFwAvnMjx-402" vertex="1">
          <mxGeometry width="30" height="20" as="geometry">
            <mxRectangle width="30" height="20" as="alternateBounds" />
          </mxGeometry>
        </mxCell>
        <mxCell id="yEf2gbcgYrwrFwAvnMjx-404" value="massage" style="shape=partialRectangle;overflow=hidden;connectable=0;fillColor=#eeeeee;top=0;left=0;bottom=0;right=0;align=left;spacingLeft=6;strokeColor=#36393d;" parent="yEf2gbcgYrwrFwAvnMjx-402" vertex="1">
          <mxGeometry x="30" width="70" height="20" as="geometry">
            <mxRectangle width="70" height="20" as="alternateBounds" />
          </mxGeometry>
        </mxCell>
        <mxCell id="yEf2gbcgYrwrFwAvnMjx-405" value="longtext" style="shape=partialRectangle;overflow=hidden;connectable=0;fillColor=#eeeeee;top=0;left=0;bottom=0;right=0;align=left;spacingLeft=6;strokeColor=#36393d;" parent="yEf2gbcgYrwrFwAvnMjx-402" vertex="1">
          <mxGeometry x="100" width="70" height="20" as="geometry">
            <mxRectangle width="70" height="20" as="alternateBounds" />
          </mxGeometry>
        </mxCell>
        <mxCell id="yEf2gbcgYrwrFwAvnMjx-406" value="-" style="shape=partialRectangle;overflow=hidden;connectable=0;fillColor=#eeeeee;top=0;left=0;bottom=0;right=0;align=left;spacingLeft=6;strokeColor=#36393d;" parent="yEf2gbcgYrwrFwAvnMjx-402" vertex="1">
          <mxGeometry x="170" width="30" height="20" as="geometry">
            <mxRectangle width="30" height="20" as="alternateBounds" />
          </mxGeometry>
        </mxCell>
        <mxCell id="yEf2gbcgYrwrFwAvnMjx-407" value="-" style="shape=partialRectangle;overflow=hidden;connectable=0;fillColor=#eeeeee;top=0;left=0;bottom=0;right=0;align=left;spacingLeft=6;strokeColor=#36393d;" parent="yEf2gbcgYrwrFwAvnMjx-402" vertex="1">
          <mxGeometry x="200" width="60" height="20" as="geometry">
            <mxRectangle width="60" height="20" as="alternateBounds" />
          </mxGeometry>
        </mxCell>
        <mxCell id="yEf2gbcgYrwrFwAvnMjx-408" value="함수수정하였음" style="shape=partialRectangle;overflow=hidden;connectable=0;fillColor=#eeeeee;top=0;left=0;bottom=0;right=0;align=left;spacingLeft=6;strokeColor=#36393d;" parent="yEf2gbcgYrwrFwAvnMjx-402" vertex="1">
          <mxGeometry x="260" width="110" height="20" as="geometry">
            <mxRectangle width="110" height="20" as="alternateBounds" />
          </mxGeometry>
        </mxCell>
        <mxCell id="yEf2gbcgYrwrFwAvnMjx-409" value="push 메시지" style="shape=partialRectangle;overflow=hidden;connectable=0;fillColor=#eeeeee;top=0;left=0;bottom=0;right=0;align=left;spacingLeft=6;strokeColor=#36393d;" parent="yEf2gbcgYrwrFwAvnMjx-402" vertex="1">
          <mxGeometry x="370" width="140" height="20" as="geometry">
            <mxRectangle width="140" height="20" as="alternateBounds" />
          </mxGeometry>
        </mxCell>
        <mxCell id="yEf2gbcgYrwrFwAvnMjx-410" style="shape=partialRectangle;collapsible=0;dropTarget=0;pointerEvents=0;fillColor=#eeeeee;points=[[0,0.5],[1,0.5]];portConstraint=eastwest;top=0;left=0;right=0;bottom=0;strokeColor=#36393d;" parent="yEf2gbcgYrwrFwAvnMjx-369" vertex="1">
          <mxGeometry y="140" width="510" height="20" as="geometry" />
        </mxCell>
        <mxCell id="yEf2gbcgYrwrFwAvnMjx-411" style="shape=partialRectangle;overflow=hidden;connectable=0;fillColor=#eeeeee;top=0;left=0;bottom=0;right=0;strokeColor=#36393d;" parent="yEf2gbcgYrwrFwAvnMjx-410" vertex="1">
          <mxGeometry width="30" height="20" as="geometry">
            <mxRectangle width="30" height="20" as="alternateBounds" />
          </mxGeometry>
        </mxCell>
        <mxCell id="yEf2gbcgYrwrFwAvnMjx-412" value="date" style="shape=partialRectangle;overflow=hidden;connectable=0;fillColor=#eeeeee;top=0;left=0;bottom=0;right=0;align=left;spacingLeft=6;strokeColor=#36393d;" parent="yEf2gbcgYrwrFwAvnMjx-410" vertex="1">
          <mxGeometry x="30" width="70" height="20" as="geometry">
            <mxRectangle width="70" height="20" as="alternateBounds" />
          </mxGeometry>
        </mxCell>
        <mxCell id="yEf2gbcgYrwrFwAvnMjx-413" value="timestamp" style="shape=partialRectangle;overflow=hidden;connectable=0;fillColor=#eeeeee;top=0;left=0;bottom=0;right=0;align=left;spacingLeft=6;strokeColor=#36393d;" parent="yEf2gbcgYrwrFwAvnMjx-410" vertex="1">
          <mxGeometry x="100" width="70" height="20" as="geometry">
            <mxRectangle width="70" height="20" as="alternateBounds" />
          </mxGeometry>
        </mxCell>
        <mxCell id="yEf2gbcgYrwrFwAvnMjx-414" value="nn" style="shape=partialRectangle;overflow=hidden;connectable=0;fillColor=#eeeeee;top=0;left=0;bottom=0;right=0;align=left;spacingLeft=6;strokeColor=#36393d;" parent="yEf2gbcgYrwrFwAvnMjx-410" vertex="1">
          <mxGeometry x="170" width="30" height="20" as="geometry">
            <mxRectangle width="30" height="20" as="alternateBounds" />
          </mxGeometry>
        </mxCell>
        <mxCell id="yEf2gbcgYrwrFwAvnMjx-415" value="now()" style="shape=partialRectangle;overflow=hidden;connectable=0;fillColor=#eeeeee;top=0;left=0;bottom=0;right=0;align=left;spacingLeft=6;strokeColor=#36393d;" parent="yEf2gbcgYrwrFwAvnMjx-410" vertex="1">
          <mxGeometry x="200" width="60" height="20" as="geometry">
            <mxRectangle width="60" height="20" as="alternateBounds" />
          </mxGeometry>
        </mxCell>
        <mxCell id="yEf2gbcgYrwrFwAvnMjx-416" value="2022-10-17 11:13:46" style="shape=partialRectangle;overflow=hidden;connectable=0;fillColor=#eeeeee;top=0;left=0;bottom=0;right=0;align=left;spacingLeft=6;strokeColor=#36393d;" parent="yEf2gbcgYrwrFwAvnMjx-410" vertex="1">
          <mxGeometry x="260" width="110" height="20" as="geometry">
            <mxRectangle width="110" height="20" as="alternateBounds" />
          </mxGeometry>
        </mxCell>
        <mxCell id="yEf2gbcgYrwrFwAvnMjx-417" value="push일" style="shape=partialRectangle;overflow=hidden;connectable=0;fillColor=#eeeeee;top=0;left=0;bottom=0;right=0;align=left;spacingLeft=6;strokeColor=#36393d;" parent="yEf2gbcgYrwrFwAvnMjx-410" vertex="1">
          <mxGeometry x="370" width="140" height="20" as="geometry">
            <mxRectangle width="140" height="20" as="alternateBounds" />
          </mxGeometry>
        </mxCell>
        <mxCell id="yEf2gbcgYrwrFwAvnMjx-427" style="shape=partialRectangle;collapsible=0;dropTarget=0;pointerEvents=0;fillColor=#eeeeee;points=[[0,0.5],[1,0.5]];portConstraint=eastwest;top=0;left=0;right=0;bottom=0;strokeColor=#36393d;" parent="yEf2gbcgYrwrFwAvnMjx-369" vertex="1">
          <mxGeometry y="160" width="510" height="20" as="geometry" />
        </mxCell>
        <mxCell id="yEf2gbcgYrwrFwAvnMjx-428" value="fk" style="shape=partialRectangle;overflow=hidden;connectable=0;fillColor=#eeeeee;top=0;left=0;bottom=0;right=0;strokeColor=#36393d;" parent="yEf2gbcgYrwrFwAvnMjx-427" vertex="1">
          <mxGeometry width="30" height="20" as="geometry">
            <mxRectangle width="30" height="20" as="alternateBounds" />
          </mxGeometry>
        </mxCell>
        <mxCell id="yEf2gbcgYrwrFwAvnMjx-429" value="branch" style="shape=partialRectangle;overflow=hidden;connectable=0;fillColor=#eeeeee;top=0;left=0;bottom=0;right=0;align=left;spacingLeft=6;strokeColor=#36393d;" parent="yEf2gbcgYrwrFwAvnMjx-427" vertex="1">
          <mxGeometry x="30" width="70" height="20" as="geometry">
            <mxRectangle width="70" height="20" as="alternateBounds" />
          </mxGeometry>
        </mxCell>
        <mxCell id="yEf2gbcgYrwrFwAvnMjx-430" value="int" style="shape=partialRectangle;overflow=hidden;connectable=0;fillColor=#eeeeee;top=0;left=0;bottom=0;right=0;align=left;spacingLeft=6;strokeColor=#36393d;" parent="yEf2gbcgYrwrFwAvnMjx-427" vertex="1">
          <mxGeometry x="100" width="70" height="20" as="geometry">
            <mxRectangle width="70" height="20" as="alternateBounds" />
          </mxGeometry>
        </mxCell>
        <mxCell id="yEf2gbcgYrwrFwAvnMjx-431" value="nn" style="shape=partialRectangle;overflow=hidden;connectable=0;fillColor=#eeeeee;top=0;left=0;bottom=0;right=0;align=left;spacingLeft=6;strokeColor=#36393d;" parent="yEf2gbcgYrwrFwAvnMjx-427" vertex="1">
          <mxGeometry x="170" width="30" height="20" as="geometry">
            <mxRectangle width="30" height="20" as="alternateBounds" />
          </mxGeometry>
        </mxCell>
        <mxCell id="yEf2gbcgYrwrFwAvnMjx-432" value="0" style="shape=partialRectangle;overflow=hidden;connectable=0;fillColor=#eeeeee;top=0;left=0;bottom=0;right=0;align=left;spacingLeft=6;strokeColor=#36393d;" parent="yEf2gbcgYrwrFwAvnMjx-427" vertex="1">
          <mxGeometry x="200" width="60" height="20" as="geometry">
            <mxRectangle width="60" height="20" as="alternateBounds" />
          </mxGeometry>
        </mxCell>
        <mxCell id="yEf2gbcgYrwrFwAvnMjx-433" value="1" style="shape=partialRectangle;overflow=hidden;connectable=0;fillColor=#eeeeee;top=0;left=0;bottom=0;right=0;align=left;spacingLeft=6;strokeColor=#36393d;" parent="yEf2gbcgYrwrFwAvnMjx-427" vertex="1">
          <mxGeometry x="260" width="110" height="20" as="geometry">
            <mxRectangle width="110" height="20" as="alternateBounds" />
          </mxGeometry>
        </mxCell>
        <mxCell id="yEf2gbcgYrwrFwAvnMjx-434" value="브랜치 번호(0은 메인)" style="shape=partialRectangle;overflow=hidden;connectable=0;fillColor=#eeeeee;top=0;left=0;bottom=0;right=0;align=left;spacingLeft=6;strokeColor=#36393d;" parent="yEf2gbcgYrwrFwAvnMjx-427" vertex="1">
          <mxGeometry x="370" width="140" height="20" as="geometry">
            <mxRectangle width="140" height="20" as="alternateBounds" />
          </mxGeometry>
        </mxCell>
        <mxCell id="yEf2gbcgYrwrFwAvnMjx-438" style="shape=partialRectangle;collapsible=0;dropTarget=0;pointerEvents=0;fillColor=#eeeeee;points=[[0,0.5],[1,0.5]];portConstraint=eastwest;top=0;left=0;right=0;bottom=0;strokeColor=#36393d;" parent="yEf2gbcgYrwrFwAvnMjx-369" vertex="1">
          <mxGeometry y="180" width="510" height="20" as="geometry" />
        </mxCell>
        <mxCell id="yEf2gbcgYrwrFwAvnMjx-439" style="shape=partialRectangle;overflow=hidden;connectable=0;fillColor=#eeeeee;top=0;left=0;bottom=0;right=0;strokeColor=#36393d;" parent="yEf2gbcgYrwrFwAvnMjx-438" vertex="1">
          <mxGeometry width="30" height="20" as="geometry">
            <mxRectangle width="30" height="20" as="alternateBounds" />
          </mxGeometry>
        </mxCell>
        <mxCell id="yEf2gbcgYrwrFwAvnMjx-440" value="from" style="shape=partialRectangle;overflow=hidden;connectable=0;fillColor=#eeeeee;top=0;left=0;bottom=0;right=0;align=left;spacingLeft=6;strokeColor=#36393d;" parent="yEf2gbcgYrwrFwAvnMjx-438" vertex="1">
          <mxGeometry x="30" width="70" height="20" as="geometry">
            <mxRectangle width="70" height="20" as="alternateBounds" />
          </mxGeometry>
        </mxCell>
        <mxCell id="yEf2gbcgYrwrFwAvnMjx-441" value="varchar(45)" style="shape=partialRectangle;overflow=hidden;connectable=0;fillColor=#eeeeee;top=0;left=0;bottom=0;right=0;align=left;spacingLeft=6;strokeColor=#36393d;" parent="yEf2gbcgYrwrFwAvnMjx-438" vertex="1">
          <mxGeometry x="100" width="70" height="20" as="geometry">
            <mxRectangle width="70" height="20" as="alternateBounds" />
          </mxGeometry>
        </mxCell>
        <mxCell id="yEf2gbcgYrwrFwAvnMjx-442" value="-" style="shape=partialRectangle;overflow=hidden;connectable=0;fillColor=#eeeeee;top=0;left=0;bottom=0;right=0;align=left;spacingLeft=6;strokeColor=#36393d;" parent="yEf2gbcgYrwrFwAvnMjx-438" vertex="1">
          <mxGeometry x="170" width="30" height="20" as="geometry">
            <mxRectangle width="30" height="20" as="alternateBounds" />
          </mxGeometry>
        </mxCell>
        <mxCell id="yEf2gbcgYrwrFwAvnMjx-443" value="-" style="shape=partialRectangle;overflow=hidden;connectable=0;fillColor=#eeeeee;top=0;left=0;bottom=0;right=0;align=left;spacingLeft=6;strokeColor=#36393d;" parent="yEf2gbcgYrwrFwAvnMjx-438" vertex="1">
          <mxGeometry x="200" width="60" height="20" as="geometry">
            <mxRectangle width="60" height="20" as="alternateBounds" />
          </mxGeometry>
        </mxCell>
        <mxCell id="yEf2gbcgYrwrFwAvnMjx-444" value="sjg3125qs" style="shape=partialRectangle;overflow=hidden;connectable=0;fillColor=#eeeeee;top=0;left=0;bottom=0;right=0;align=left;spacingLeft=6;strokeColor=#36393d;" parent="yEf2gbcgYrwrFwAvnMjx-438" vertex="1">
          <mxGeometry x="260" width="110" height="20" as="geometry">
            <mxRectangle width="110" height="20" as="alternateBounds" />
          </mxGeometry>
        </mxCell>
        <mxCell id="yEf2gbcgYrwrFwAvnMjx-445" value="pull했었던 토큰값" style="shape=partialRectangle;overflow=hidden;connectable=0;fillColor=#eeeeee;top=0;left=0;bottom=0;right=0;align=left;spacingLeft=6;strokeColor=#36393d;" parent="yEf2gbcgYrwrFwAvnMjx-438" vertex="1">
          <mxGeometry x="370" width="140" height="20" as="geometry">
            <mxRectangle width="140" height="20" as="alternateBounds" />
          </mxGeometry>
        </mxCell>
        <mxCell id="yEf2gbcgYrwrFwAvnMjx-436" value="파일을 읽어 올 때" style="swimlane;fillColor=#fff2cc;strokeColor=#d6b656;fontSize=16;fontStyle=1" parent="1" vertex="1">
          <mxGeometry x="-662.5" y="-720" width="625" height="320" as="geometry" />
        </mxCell>
        <mxCell id="yEf2gbcgYrwrFwAvnMjx-437" value="서버 파일 관리 경로: /files/토큰/&lt;br style=&quot;font-size: 16px;&quot;&gt;&lt;br style=&quot;font-size: 16px;&quot;&gt;www.GGitHub.com/&lt;span style=&quot;background-color: rgb(151, 208, 119); font-size: 16px;&quot;&gt;닉네임&lt;/span&gt;/&lt;span style=&quot;background-color: rgb(79, 255, 220); font-size: 16px;&quot;&gt;저장소이름&lt;/span&gt;/&lt;span style=&quot;background-color: rgb(200, 186, 255); font-size: 16px;&quot;&gt;(브랜치)&lt;/span&gt;&lt;br style=&quot;font-size: 16px;&quot;&gt;로 접근했을 때&lt;br style=&quot;font-size: 16px;&quot;&gt;&lt;span style=&quot;background-color: rgb(151, 208, 119); font-size: 16px;&quot;&gt;닉네임&lt;/span&gt;으로 MEMBER에서 &lt;span style=&quot;background-color: rgb(255, 130, 130); font-size: 16px;&quot;&gt;idx&lt;/span&gt;를 찾고&lt;br style=&quot;font-size: 16px;&quot;&gt;REPO에서 owner=&lt;span style=&quot;background-color: rgb(255, 130, 130); font-size: 16px;&quot;&gt;idx &lt;/span&gt;and name=&lt;span style=&quot;background-color: rgb(79, 255, 220); font-size: 16px;&quot;&gt;저장소이름 &lt;/span&gt;으로&amp;nbsp;&lt;br style=&quot;font-size: 16px;&quot;&gt;&lt;span style=&quot;background-color: rgb(241, 255, 153); font-size: 16px;&quot;&gt;REPO idx&lt;/span&gt;를 찾는다&amp;nbsp;&lt;br style=&quot;font-size: 16px;&quot;&gt;화면에 보여줘야 하는 서버상의 파일 저장 경로는&lt;br style=&quot;font-size: 16px;&quot;&gt;/files/{PUSH에서 repo=&lt;span style=&quot;background-color: rgb(241, 255, 153); font-size: 16px;&quot;&gt;REPO idx&lt;/span&gt; and branch=&lt;span style=&quot;background-color: rgb(200, 186, 255); font-size: 16px;&quot;&gt;브랜치idx&lt;/span&gt; 인 최근 토큰}/ 이다.&lt;br style=&quot;font-size: 16px;&quot;&gt;--------------------------------------------------------------------------------------------------------------&lt;br style=&quot;font-size: 16px;&quot;&gt;www.GGitHub.com/닉네임/저장소이름/브랜치/디렉토리&lt;br style=&quot;font-size: 16px;&quot;&gt;로 접근하면&lt;br style=&quot;font-size: 16px;&quot;&gt;/files/{PUSH에서 repo=REPO idx and branch=브랜치idx 인 최근 토큰}/디렉토리/&lt;br style=&quot;font-size: 16px;&quot;&gt;경로의 파일을 보여준다" style="text;html=1;align=center;verticalAlign=middle;resizable=0;points=[];autosize=1;strokeColor=#d79b00;fillColor=#ffe6cc;fontSize=16;fontStyle=1;" parent="yEf2gbcgYrwrFwAvnMjx-436" vertex="1">
          <mxGeometry x="7.5" y="30" width="610" height="280" as="geometry" />
        </mxCell>
        <object label="BRANCH(브랜치)" idx="" id="-wRGZAtz3f00x_fr0-pT-1">
          <mxCell style="shape=table;startSize=30;container=1;collapsible=1;childLayout=tableLayout;fixedRows=1;rowLines=0;fontStyle=1;align=center;resizeLast=1;fillColor=#cce5ff;strokeColor=#36393d;fontSize=18;" parent="1" vertex="1">
            <mxGeometry x="-630" y="-1220" width="560" height="140" as="geometry" />
          </mxCell>
        </object>
        <mxCell id="-wRGZAtz3f00x_fr0-pT-2" value="" style="shape=partialRectangle;collapsible=0;dropTarget=0;pointerEvents=0;fillColor=#eeeeee;points=[[0,0.5],[1,0.5]];portConstraint=eastwest;top=0;left=0;right=0;bottom=1;strokeColor=#36393d;" parent="-wRGZAtz3f00x_fr0-pT-1" vertex="1">
          <mxGeometry y="30" width="560" height="30" as="geometry" />
        </mxCell>
        <mxCell id="-wRGZAtz3f00x_fr0-pT-3" value="KEY" style="shape=partialRectangle;overflow=hidden;connectable=0;fillColor=#eeeeee;top=0;left=0;bottom=0;right=0;fontStyle=1;strokeColor=#36393d;" parent="-wRGZAtz3f00x_fr0-pT-2" vertex="1">
          <mxGeometry width="30" height="30" as="geometry">
            <mxRectangle width="30" height="30" as="alternateBounds" />
          </mxGeometry>
        </mxCell>
        <mxCell id="-wRGZAtz3f00x_fr0-pT-4" value="ATT" style="shape=partialRectangle;overflow=hidden;connectable=0;fillColor=#eeeeee;top=0;left=0;bottom=0;right=0;align=left;spacingLeft=6;fontStyle=5;strokeColor=#36393d;" parent="-wRGZAtz3f00x_fr0-pT-2" vertex="1">
          <mxGeometry x="30" width="70" height="30" as="geometry">
            <mxRectangle width="70" height="30" as="alternateBounds" />
          </mxGeometry>
        </mxCell>
        <mxCell id="-wRGZAtz3f00x_fr0-pT-5" value="DATA" style="shape=partialRectangle;overflow=hidden;connectable=0;fillColor=#eeeeee;top=0;left=0;bottom=0;right=0;align=left;spacingLeft=6;fontStyle=5;strokeColor=#36393d;" parent="-wRGZAtz3f00x_fr0-pT-2" vertex="1">
          <mxGeometry x="100" width="70" height="30" as="geometry">
            <mxRectangle width="70" height="30" as="alternateBounds" />
          </mxGeometry>
        </mxCell>
        <mxCell id="-wRGZAtz3f00x_fr0-pT-6" value="NN" style="shape=partialRectangle;overflow=hidden;connectable=0;fillColor=#eeeeee;top=0;left=0;bottom=0;right=0;align=left;spacingLeft=6;fontStyle=5;strokeColor=#36393d;" parent="-wRGZAtz3f00x_fr0-pT-2" vertex="1">
          <mxGeometry x="170" width="30" height="30" as="geometry">
            <mxRectangle width="30" height="30" as="alternateBounds" />
          </mxGeometry>
        </mxCell>
        <mxCell id="-wRGZAtz3f00x_fr0-pT-7" value="DEFAULT" style="shape=partialRectangle;overflow=hidden;connectable=0;fillColor=#eeeeee;top=0;left=0;bottom=0;right=0;align=left;spacingLeft=6;fontStyle=5;strokeColor=#36393d;" parent="-wRGZAtz3f00x_fr0-pT-2" vertex="1">
          <mxGeometry x="200" width="60" height="30" as="geometry">
            <mxRectangle width="60" height="30" as="alternateBounds" />
          </mxGeometry>
        </mxCell>
        <mxCell id="-wRGZAtz3f00x_fr0-pT-8" value="EX" style="shape=partialRectangle;overflow=hidden;connectable=0;fillColor=#eeeeee;top=0;left=0;bottom=0;right=0;align=left;spacingLeft=6;fontStyle=5;strokeColor=#36393d;" parent="-wRGZAtz3f00x_fr0-pT-2" vertex="1">
          <mxGeometry x="260" width="30" height="30" as="geometry">
            <mxRectangle width="30" height="30" as="alternateBounds" />
          </mxGeometry>
        </mxCell>
        <mxCell id="-wRGZAtz3f00x_fr0-pT-9" value="설명" style="shape=partialRectangle;overflow=hidden;connectable=0;fillColor=#eeeeee;top=0;left=0;bottom=0;right=0;align=left;spacingLeft=6;fontStyle=5;strokeColor=#36393d;" parent="-wRGZAtz3f00x_fr0-pT-2" vertex="1">
          <mxGeometry x="290" width="270" height="30" as="geometry">
            <mxRectangle width="270" height="30" as="alternateBounds" />
          </mxGeometry>
        </mxCell>
        <mxCell id="-wRGZAtz3f00x_fr0-pT-10" style="shape=partialRectangle;collapsible=0;dropTarget=0;pointerEvents=0;fillColor=#eeeeee;points=[[0,0.5],[1,0.5]];portConstraint=eastwest;top=0;left=0;right=0;bottom=0;strokeColor=#36393d;" parent="-wRGZAtz3f00x_fr0-pT-1" vertex="1">
          <mxGeometry y="60" width="560" height="20" as="geometry" />
        </mxCell>
        <mxCell id="-wRGZAtz3f00x_fr0-pT-11" value="pk" style="shape=partialRectangle;overflow=hidden;connectable=0;fillColor=#eeeeee;top=0;left=0;bottom=0;right=0;strokeColor=#36393d;" parent="-wRGZAtz3f00x_fr0-pT-10" vertex="1">
          <mxGeometry width="30" height="20" as="geometry">
            <mxRectangle width="30" height="20" as="alternateBounds" />
          </mxGeometry>
        </mxCell>
        <mxCell id="-wRGZAtz3f00x_fr0-pT-12" value="idx" style="shape=partialRectangle;overflow=hidden;connectable=0;fillColor=#eeeeee;top=0;left=0;bottom=0;right=0;align=left;spacingLeft=6;strokeColor=#36393d;" parent="-wRGZAtz3f00x_fr0-pT-10" vertex="1">
          <mxGeometry x="30" width="70" height="20" as="geometry">
            <mxRectangle width="70" height="20" as="alternateBounds" />
          </mxGeometry>
        </mxCell>
        <mxCell id="-wRGZAtz3f00x_fr0-pT-13" value="int" style="shape=partialRectangle;overflow=hidden;connectable=0;fillColor=#eeeeee;top=0;left=0;bottom=0;right=0;align=left;spacingLeft=6;strokeColor=#36393d;" parent="-wRGZAtz3f00x_fr0-pT-10" vertex="1">
          <mxGeometry x="100" width="70" height="20" as="geometry">
            <mxRectangle width="70" height="20" as="alternateBounds" />
          </mxGeometry>
        </mxCell>
        <mxCell id="-wRGZAtz3f00x_fr0-pT-14" value="nn" style="shape=partialRectangle;overflow=hidden;connectable=0;fillColor=#eeeeee;top=0;left=0;bottom=0;right=0;align=left;spacingLeft=6;strokeColor=#36393d;" parent="-wRGZAtz3f00x_fr0-pT-10" vertex="1">
          <mxGeometry x="170" width="30" height="20" as="geometry">
            <mxRectangle width="30" height="20" as="alternateBounds" />
          </mxGeometry>
        </mxCell>
        <mxCell id="-wRGZAtz3f00x_fr0-pT-15" value="auto indx" style="shape=partialRectangle;overflow=hidden;connectable=0;fillColor=#eeeeee;top=0;left=0;bottom=0;right=0;align=left;spacingLeft=6;strokeColor=#36393d;" parent="-wRGZAtz3f00x_fr0-pT-10" vertex="1">
          <mxGeometry x="200" width="60" height="20" as="geometry">
            <mxRectangle width="60" height="20" as="alternateBounds" />
          </mxGeometry>
        </mxCell>
        <mxCell id="-wRGZAtz3f00x_fr0-pT-16" value="1" style="shape=partialRectangle;overflow=hidden;connectable=0;fillColor=#eeeeee;top=0;left=0;bottom=0;right=0;align=left;spacingLeft=6;strokeColor=#36393d;" parent="-wRGZAtz3f00x_fr0-pT-10" vertex="1">
          <mxGeometry x="260" width="30" height="20" as="geometry">
            <mxRectangle width="30" height="20" as="alternateBounds" />
          </mxGeometry>
        </mxCell>
        <mxCell id="-wRGZAtz3f00x_fr0-pT-17" value="브랜치번호" style="shape=partialRectangle;overflow=hidden;connectable=0;fillColor=#eeeeee;top=0;left=0;bottom=0;right=0;align=left;spacingLeft=6;strokeColor=#36393d;" parent="-wRGZAtz3f00x_fr0-pT-10" vertex="1">
          <mxGeometry x="290" width="270" height="20" as="geometry">
            <mxRectangle width="270" height="20" as="alternateBounds" />
          </mxGeometry>
        </mxCell>
        <mxCell id="-wRGZAtz3f00x_fr0-pT-18" value="" style="shape=partialRectangle;collapsible=0;dropTarget=0;pointerEvents=0;fillColor=#eeeeee;points=[[0,0.5],[1,0.5]];portConstraint=eastwest;top=0;left=0;right=0;bottom=0;strokeColor=#36393d;" parent="-wRGZAtz3f00x_fr0-pT-1" vertex="1">
          <mxGeometry y="80" width="560" height="20" as="geometry" />
        </mxCell>
        <mxCell id="-wRGZAtz3f00x_fr0-pT-19" value="fk" style="shape=partialRectangle;overflow=hidden;connectable=0;fillColor=#eeeeee;top=0;left=0;bottom=0;right=0;strokeColor=#36393d;" parent="-wRGZAtz3f00x_fr0-pT-18" vertex="1">
          <mxGeometry width="30" height="20" as="geometry">
            <mxRectangle width="30" height="20" as="alternateBounds" />
          </mxGeometry>
        </mxCell>
        <mxCell id="-wRGZAtz3f00x_fr0-pT-20" value="repo" style="shape=partialRectangle;overflow=hidden;connectable=0;fillColor=#eeeeee;top=0;left=0;bottom=0;right=0;align=left;spacingLeft=6;strokeColor=#36393d;" parent="-wRGZAtz3f00x_fr0-pT-18" vertex="1">
          <mxGeometry x="30" width="70" height="20" as="geometry">
            <mxRectangle width="70" height="20" as="alternateBounds" />
          </mxGeometry>
        </mxCell>
        <mxCell id="-wRGZAtz3f00x_fr0-pT-21" value="int" style="shape=partialRectangle;overflow=hidden;connectable=0;fillColor=#eeeeee;top=0;left=0;bottom=0;right=0;align=left;spacingLeft=6;strokeColor=#36393d;" parent="-wRGZAtz3f00x_fr0-pT-18" vertex="1">
          <mxGeometry x="100" width="70" height="20" as="geometry">
            <mxRectangle width="70" height="20" as="alternateBounds" />
          </mxGeometry>
        </mxCell>
        <mxCell id="-wRGZAtz3f00x_fr0-pT-22" value="nn" style="shape=partialRectangle;overflow=hidden;connectable=0;fillColor=#eeeeee;top=0;left=0;bottom=0;right=0;align=left;spacingLeft=6;strokeColor=#36393d;" parent="-wRGZAtz3f00x_fr0-pT-18" vertex="1">
          <mxGeometry x="170" width="30" height="20" as="geometry">
            <mxRectangle width="30" height="20" as="alternateBounds" />
          </mxGeometry>
        </mxCell>
        <mxCell id="-wRGZAtz3f00x_fr0-pT-23" value="-" style="shape=partialRectangle;overflow=hidden;connectable=0;fillColor=#eeeeee;top=0;left=0;bottom=0;right=0;align=left;spacingLeft=6;strokeColor=#36393d;" parent="-wRGZAtz3f00x_fr0-pT-18" vertex="1">
          <mxGeometry x="200" width="60" height="20" as="geometry">
            <mxRectangle width="60" height="20" as="alternateBounds" />
          </mxGeometry>
        </mxCell>
        <mxCell id="-wRGZAtz3f00x_fr0-pT-24" value="1" style="shape=partialRectangle;overflow=hidden;connectable=0;fillColor=#eeeeee;top=0;left=0;bottom=0;right=0;align=left;spacingLeft=6;strokeColor=#36393d;" parent="-wRGZAtz3f00x_fr0-pT-18" vertex="1">
          <mxGeometry x="260" width="30" height="20" as="geometry">
            <mxRectangle width="30" height="20" as="alternateBounds" />
          </mxGeometry>
        </mxCell>
        <mxCell id="-wRGZAtz3f00x_fr0-pT-25" value="저장소 번호(repo-idx)" style="shape=partialRectangle;overflow=hidden;connectable=0;fillColor=#eeeeee;top=0;left=0;bottom=0;right=0;align=left;spacingLeft=6;strokeColor=#36393d;" parent="-wRGZAtz3f00x_fr0-pT-18" vertex="1">
          <mxGeometry x="290" width="270" height="20" as="geometry">
            <mxRectangle width="270" height="20" as="alternateBounds" />
          </mxGeometry>
        </mxCell>
        <mxCell id="-wRGZAtz3f00x_fr0-pT-42" style="shape=partialRectangle;collapsible=0;dropTarget=0;pointerEvents=0;fillColor=#eeeeee;points=[[0,0.5],[1,0.5]];portConstraint=eastwest;top=0;left=0;right=0;bottom=0;strokeColor=#36393d;" parent="-wRGZAtz3f00x_fr0-pT-1" vertex="1">
          <mxGeometry y="100" width="560" height="40" as="geometry" />
        </mxCell>
        <mxCell id="-wRGZAtz3f00x_fr0-pT-43" style="shape=partialRectangle;overflow=hidden;connectable=0;fillColor=#eeeeee;top=0;left=0;bottom=0;right=0;strokeColor=#36393d;" parent="-wRGZAtz3f00x_fr0-pT-42" vertex="1">
          <mxGeometry width="30" height="40" as="geometry">
            <mxRectangle width="30" height="40" as="alternateBounds" />
          </mxGeometry>
        </mxCell>
        <mxCell id="-wRGZAtz3f00x_fr0-pT-44" value="post" style="shape=partialRectangle;overflow=hidden;connectable=0;fillColor=#eeeeee;top=0;left=0;bottom=0;right=0;align=left;spacingLeft=6;strokeColor=#36393d;" parent="-wRGZAtz3f00x_fr0-pT-42" vertex="1">
          <mxGeometry x="30" width="70" height="40" as="geometry">
            <mxRectangle width="70" height="40" as="alternateBounds" />
          </mxGeometry>
        </mxCell>
        <mxCell id="-wRGZAtz3f00x_fr0-pT-45" value="tinyint(1)" style="shape=partialRectangle;overflow=hidden;connectable=0;fillColor=#eeeeee;top=0;left=0;bottom=0;right=0;align=left;spacingLeft=6;strokeColor=#36393d;" parent="-wRGZAtz3f00x_fr0-pT-42" vertex="1">
          <mxGeometry x="100" width="70" height="40" as="geometry">
            <mxRectangle width="70" height="40" as="alternateBounds" />
          </mxGeometry>
        </mxCell>
        <mxCell id="-wRGZAtz3f00x_fr0-pT-46" value="nn" style="shape=partialRectangle;overflow=hidden;connectable=0;fillColor=#eeeeee;top=0;left=0;bottom=0;right=0;align=left;spacingLeft=6;strokeColor=#36393d;" parent="-wRGZAtz3f00x_fr0-pT-42" vertex="1">
          <mxGeometry x="170" width="30" height="40" as="geometry">
            <mxRectangle width="30" height="40" as="alternateBounds" />
          </mxGeometry>
        </mxCell>
        <mxCell id="-wRGZAtz3f00x_fr0-pT-47" value="1" style="shape=partialRectangle;overflow=hidden;connectable=0;fillColor=#eeeeee;top=0;left=0;bottom=0;right=0;align=left;spacingLeft=6;strokeColor=#36393d;" parent="-wRGZAtz3f00x_fr0-pT-42" vertex="1">
          <mxGeometry x="200" width="60" height="40" as="geometry">
            <mxRectangle width="60" height="40" as="alternateBounds" />
          </mxGeometry>
        </mxCell>
        <mxCell id="-wRGZAtz3f00x_fr0-pT-48" value="0" style="shape=partialRectangle;overflow=hidden;connectable=0;fillColor=#eeeeee;top=0;left=0;bottom=0;right=0;align=left;spacingLeft=6;strokeColor=#36393d;" parent="-wRGZAtz3f00x_fr0-pT-42" vertex="1">
          <mxGeometry x="260" width="30" height="40" as="geometry">
            <mxRectangle width="30" height="40" as="alternateBounds" />
          </mxGeometry>
        </mxCell>
        <mxCell id="-wRGZAtz3f00x_fr0-pT-49" value="브랜치는 삭제가 되어도 파일은 삭제 되지 않는다.&#xa;post가 0이면 브랜치 목록에 보이지 않는다." style="shape=partialRectangle;overflow=hidden;connectable=0;fillColor=#eeeeee;top=0;left=0;bottom=0;right=0;align=left;spacingLeft=6;strokeColor=#36393d;" parent="-wRGZAtz3f00x_fr0-pT-42" vertex="1">
          <mxGeometry x="290" width="270" height="40" as="geometry">
            <mxRectangle width="270" height="40" as="alternateBounds" />
          </mxGeometry>
        </mxCell>
        <object label="REPOMEM(저장소 맴버)" idx="" id="-wRGZAtz3f00x_fr0-pT-50">
          <mxCell style="shape=table;startSize=30;container=1;collapsible=1;childLayout=tableLayout;fixedRows=1;rowLines=0;fontStyle=1;align=center;resizeLast=1;fillColor=#cce5ff;strokeColor=#36393d;fontSize=18;" parent="1" vertex="1">
            <mxGeometry x="-1840" y="-690" width="550" height="120" as="geometry" />
          </mxCell>
        </object>
        <mxCell id="-wRGZAtz3f00x_fr0-pT-51" value="" style="shape=partialRectangle;collapsible=0;dropTarget=0;pointerEvents=0;fillColor=#eeeeee;points=[[0,0.5],[1,0.5]];portConstraint=eastwest;top=0;left=0;right=0;bottom=1;strokeColor=#36393d;" parent="-wRGZAtz3f00x_fr0-pT-50" vertex="1">
          <mxGeometry y="30" width="550" height="30" as="geometry" />
        </mxCell>
        <mxCell id="-wRGZAtz3f00x_fr0-pT-52" value="KEY" style="shape=partialRectangle;overflow=hidden;connectable=0;fillColor=#eeeeee;top=0;left=0;bottom=0;right=0;fontStyle=1;strokeColor=#36393d;" parent="-wRGZAtz3f00x_fr0-pT-51" vertex="1">
          <mxGeometry width="30" height="30" as="geometry">
            <mxRectangle width="30" height="30" as="alternateBounds" />
          </mxGeometry>
        </mxCell>
        <mxCell id="-wRGZAtz3f00x_fr0-pT-53" value="ATT" style="shape=partialRectangle;overflow=hidden;connectable=0;fillColor=#eeeeee;top=0;left=0;bottom=0;right=0;align=left;spacingLeft=6;fontStyle=5;strokeColor=#36393d;" parent="-wRGZAtz3f00x_fr0-pT-51" vertex="1">
          <mxGeometry x="30" width="70" height="30" as="geometry">
            <mxRectangle width="70" height="30" as="alternateBounds" />
          </mxGeometry>
        </mxCell>
        <mxCell id="-wRGZAtz3f00x_fr0-pT-54" value="DATA" style="shape=partialRectangle;overflow=hidden;connectable=0;fillColor=#eeeeee;top=0;left=0;bottom=0;right=0;align=left;spacingLeft=6;fontStyle=5;strokeColor=#36393d;" parent="-wRGZAtz3f00x_fr0-pT-51" vertex="1">
          <mxGeometry x="100" width="70" height="30" as="geometry">
            <mxRectangle width="70" height="30" as="alternateBounds" />
          </mxGeometry>
        </mxCell>
        <mxCell id="-wRGZAtz3f00x_fr0-pT-55" value="NN" style="shape=partialRectangle;overflow=hidden;connectable=0;fillColor=#eeeeee;top=0;left=0;bottom=0;right=0;align=left;spacingLeft=6;fontStyle=5;strokeColor=#36393d;" parent="-wRGZAtz3f00x_fr0-pT-51" vertex="1">
          <mxGeometry x="170" width="30" height="30" as="geometry">
            <mxRectangle width="30" height="30" as="alternateBounds" />
          </mxGeometry>
        </mxCell>
        <mxCell id="-wRGZAtz3f00x_fr0-pT-56" value="DEFAULT" style="shape=partialRectangle;overflow=hidden;connectable=0;fillColor=#eeeeee;top=0;left=0;bottom=0;right=0;align=left;spacingLeft=6;fontStyle=5;strokeColor=#36393d;" parent="-wRGZAtz3f00x_fr0-pT-51" vertex="1">
          <mxGeometry x="200" width="60" height="30" as="geometry">
            <mxRectangle width="60" height="30" as="alternateBounds" />
          </mxGeometry>
        </mxCell>
        <mxCell id="-wRGZAtz3f00x_fr0-pT-57" value="EX" style="shape=partialRectangle;overflow=hidden;connectable=0;fillColor=#eeeeee;top=0;left=0;bottom=0;right=0;align=left;spacingLeft=6;fontStyle=5;strokeColor=#36393d;" parent="-wRGZAtz3f00x_fr0-pT-51" vertex="1">
          <mxGeometry x="260" width="110" height="30" as="geometry">
            <mxRectangle width="110" height="30" as="alternateBounds" />
          </mxGeometry>
        </mxCell>
        <mxCell id="-wRGZAtz3f00x_fr0-pT-58" value="설명" style="shape=partialRectangle;overflow=hidden;connectable=0;fillColor=#eeeeee;top=0;left=0;bottom=0;right=0;align=left;spacingLeft=6;fontStyle=5;strokeColor=#36393d;" parent="-wRGZAtz3f00x_fr0-pT-51" vertex="1">
          <mxGeometry x="370" width="180" height="30" as="geometry">
            <mxRectangle width="180" height="30" as="alternateBounds" />
          </mxGeometry>
        </mxCell>
        <mxCell id="-wRGZAtz3f00x_fr0-pT-59" style="shape=partialRectangle;collapsible=0;dropTarget=0;pointerEvents=0;fillColor=#eeeeee;points=[[0,0.5],[1,0.5]];portConstraint=eastwest;top=0;left=0;right=0;bottom=0;strokeColor=#36393d;" parent="-wRGZAtz3f00x_fr0-pT-50" vertex="1">
          <mxGeometry y="60" width="550" height="20" as="geometry" />
        </mxCell>
        <mxCell id="-wRGZAtz3f00x_fr0-pT-60" value="pk" style="shape=partialRectangle;overflow=hidden;connectable=0;fillColor=#eeeeee;top=0;left=0;bottom=0;right=0;strokeColor=#36393d;" parent="-wRGZAtz3f00x_fr0-pT-59" vertex="1">
          <mxGeometry width="30" height="20" as="geometry">
            <mxRectangle width="30" height="20" as="alternateBounds" />
          </mxGeometry>
        </mxCell>
        <mxCell id="-wRGZAtz3f00x_fr0-pT-61" value="idx" style="shape=partialRectangle;overflow=hidden;connectable=0;fillColor=#eeeeee;top=0;left=0;bottom=0;right=0;align=left;spacingLeft=6;strokeColor=#36393d;" parent="-wRGZAtz3f00x_fr0-pT-59" vertex="1">
          <mxGeometry x="30" width="70" height="20" as="geometry">
            <mxRectangle width="70" height="20" as="alternateBounds" />
          </mxGeometry>
        </mxCell>
        <mxCell id="-wRGZAtz3f00x_fr0-pT-62" value="int" style="shape=partialRectangle;overflow=hidden;connectable=0;fillColor=#eeeeee;top=0;left=0;bottom=0;right=0;align=left;spacingLeft=6;strokeColor=#36393d;" parent="-wRGZAtz3f00x_fr0-pT-59" vertex="1">
          <mxGeometry x="100" width="70" height="20" as="geometry">
            <mxRectangle width="70" height="20" as="alternateBounds" />
          </mxGeometry>
        </mxCell>
        <mxCell id="-wRGZAtz3f00x_fr0-pT-63" value="nn" style="shape=partialRectangle;overflow=hidden;connectable=0;fillColor=#eeeeee;top=0;left=0;bottom=0;right=0;align=left;spacingLeft=6;strokeColor=#36393d;" parent="-wRGZAtz3f00x_fr0-pT-59" vertex="1">
          <mxGeometry x="170" width="30" height="20" as="geometry">
            <mxRectangle width="30" height="20" as="alternateBounds" />
          </mxGeometry>
        </mxCell>
        <mxCell id="-wRGZAtz3f00x_fr0-pT-64" value="auto indx" style="shape=partialRectangle;overflow=hidden;connectable=0;fillColor=#eeeeee;top=0;left=0;bottom=0;right=0;align=left;spacingLeft=6;strokeColor=#36393d;" parent="-wRGZAtz3f00x_fr0-pT-59" vertex="1">
          <mxGeometry x="200" width="60" height="20" as="geometry">
            <mxRectangle width="60" height="20" as="alternateBounds" />
          </mxGeometry>
        </mxCell>
        <mxCell id="-wRGZAtz3f00x_fr0-pT-65" value="1" style="shape=partialRectangle;overflow=hidden;connectable=0;fillColor=#eeeeee;top=0;left=0;bottom=0;right=0;align=left;spacingLeft=6;strokeColor=#36393d;" parent="-wRGZAtz3f00x_fr0-pT-59" vertex="1">
          <mxGeometry x="260" width="110" height="20" as="geometry">
            <mxRectangle width="110" height="20" as="alternateBounds" />
          </mxGeometry>
        </mxCell>
        <mxCell id="-wRGZAtz3f00x_fr0-pT-66" value="idx" style="shape=partialRectangle;overflow=hidden;connectable=0;fillColor=#eeeeee;top=0;left=0;bottom=0;right=0;align=left;spacingLeft=6;strokeColor=#36393d;" parent="-wRGZAtz3f00x_fr0-pT-59" vertex="1">
          <mxGeometry x="370" width="180" height="20" as="geometry">
            <mxRectangle width="180" height="20" as="alternateBounds" />
          </mxGeometry>
        </mxCell>
        <mxCell id="-wRGZAtz3f00x_fr0-pT-67" value="" style="shape=partialRectangle;collapsible=0;dropTarget=0;pointerEvents=0;fillColor=#eeeeee;points=[[0,0.5],[1,0.5]];portConstraint=eastwest;top=0;left=0;right=0;bottom=0;strokeColor=#36393d;" parent="-wRGZAtz3f00x_fr0-pT-50" vertex="1">
          <mxGeometry y="80" width="550" height="20" as="geometry" />
        </mxCell>
        <mxCell id="-wRGZAtz3f00x_fr0-pT-68" value="fk" style="shape=partialRectangle;overflow=hidden;connectable=0;fillColor=#eeeeee;top=0;left=0;bottom=0;right=0;strokeColor=#36393d;" parent="-wRGZAtz3f00x_fr0-pT-67" vertex="1">
          <mxGeometry width="30" height="20" as="geometry">
            <mxRectangle width="30" height="20" as="alternateBounds" />
          </mxGeometry>
        </mxCell>
        <mxCell id="-wRGZAtz3f00x_fr0-pT-69" value="repo" style="shape=partialRectangle;overflow=hidden;connectable=0;fillColor=#eeeeee;top=0;left=0;bottom=0;right=0;align=left;spacingLeft=6;strokeColor=#36393d;" parent="-wRGZAtz3f00x_fr0-pT-67" vertex="1">
          <mxGeometry x="30" width="70" height="20" as="geometry">
            <mxRectangle width="70" height="20" as="alternateBounds" />
          </mxGeometry>
        </mxCell>
        <mxCell id="-wRGZAtz3f00x_fr0-pT-70" value="int" style="shape=partialRectangle;overflow=hidden;connectable=0;fillColor=#eeeeee;top=0;left=0;bottom=0;right=0;align=left;spacingLeft=6;strokeColor=#36393d;" parent="-wRGZAtz3f00x_fr0-pT-67" vertex="1">
          <mxGeometry x="100" width="70" height="20" as="geometry">
            <mxRectangle width="70" height="20" as="alternateBounds" />
          </mxGeometry>
        </mxCell>
        <mxCell id="-wRGZAtz3f00x_fr0-pT-71" value="nn" style="shape=partialRectangle;overflow=hidden;connectable=0;fillColor=#eeeeee;top=0;left=0;bottom=0;right=0;align=left;spacingLeft=6;strokeColor=#36393d;" parent="-wRGZAtz3f00x_fr0-pT-67" vertex="1">
          <mxGeometry x="170" width="30" height="20" as="geometry">
            <mxRectangle width="30" height="20" as="alternateBounds" />
          </mxGeometry>
        </mxCell>
        <mxCell id="-wRGZAtz3f00x_fr0-pT-72" value="-" style="shape=partialRectangle;overflow=hidden;connectable=0;fillColor=#eeeeee;top=0;left=0;bottom=0;right=0;align=left;spacingLeft=6;strokeColor=#36393d;" parent="-wRGZAtz3f00x_fr0-pT-67" vertex="1">
          <mxGeometry x="200" width="60" height="20" as="geometry">
            <mxRectangle width="60" height="20" as="alternateBounds" />
          </mxGeometry>
        </mxCell>
        <mxCell id="-wRGZAtz3f00x_fr0-pT-73" value="22" style="shape=partialRectangle;overflow=hidden;connectable=0;fillColor=#eeeeee;top=0;left=0;bottom=0;right=0;align=left;spacingLeft=6;strokeColor=#36393d;" parent="-wRGZAtz3f00x_fr0-pT-67" vertex="1">
          <mxGeometry x="260" width="110" height="20" as="geometry">
            <mxRectangle width="110" height="20" as="alternateBounds" />
          </mxGeometry>
        </mxCell>
        <mxCell id="-wRGZAtz3f00x_fr0-pT-74" value="저장소 번호(repo-idx)" style="shape=partialRectangle;overflow=hidden;connectable=0;fillColor=#eeeeee;top=0;left=0;bottom=0;right=0;align=left;spacingLeft=6;strokeColor=#36393d;" parent="-wRGZAtz3f00x_fr0-pT-67" vertex="1">
          <mxGeometry x="370" width="180" height="20" as="geometry">
            <mxRectangle width="180" height="20" as="alternateBounds" />
          </mxGeometry>
        </mxCell>
        <mxCell id="-wRGZAtz3f00x_fr0-pT-75" style="shape=partialRectangle;collapsible=0;dropTarget=0;pointerEvents=0;fillColor=#eeeeee;points=[[0,0.5],[1,0.5]];portConstraint=eastwest;top=0;left=0;right=0;bottom=0;strokeColor=#36393d;" parent="-wRGZAtz3f00x_fr0-pT-50" vertex="1">
          <mxGeometry y="100" width="550" height="20" as="geometry" />
        </mxCell>
        <mxCell id="-wRGZAtz3f00x_fr0-pT-76" value="fk" style="shape=partialRectangle;overflow=hidden;connectable=0;fillColor=#eeeeee;top=0;left=0;bottom=0;right=0;strokeColor=#36393d;" parent="-wRGZAtz3f00x_fr0-pT-75" vertex="1">
          <mxGeometry width="30" height="20" as="geometry">
            <mxRectangle width="30" height="20" as="alternateBounds" />
          </mxGeometry>
        </mxCell>
        <mxCell id="-wRGZAtz3f00x_fr0-pT-77" value="member" style="shape=partialRectangle;overflow=hidden;connectable=0;fillColor=#eeeeee;top=0;left=0;bottom=0;right=0;align=left;spacingLeft=6;strokeColor=#36393d;" parent="-wRGZAtz3f00x_fr0-pT-75" vertex="1">
          <mxGeometry x="30" width="70" height="20" as="geometry">
            <mxRectangle width="70" height="20" as="alternateBounds" />
          </mxGeometry>
        </mxCell>
        <mxCell id="-wRGZAtz3f00x_fr0-pT-78" value="int" style="shape=partialRectangle;overflow=hidden;connectable=0;fillColor=#eeeeee;top=0;left=0;bottom=0;right=0;align=left;spacingLeft=6;strokeColor=#36393d;" parent="-wRGZAtz3f00x_fr0-pT-75" vertex="1">
          <mxGeometry x="100" width="70" height="20" as="geometry">
            <mxRectangle width="70" height="20" as="alternateBounds" />
          </mxGeometry>
        </mxCell>
        <mxCell id="-wRGZAtz3f00x_fr0-pT-79" value="nn" style="shape=partialRectangle;overflow=hidden;connectable=0;fillColor=#eeeeee;top=0;left=0;bottom=0;right=0;align=left;spacingLeft=6;strokeColor=#36393d;" parent="-wRGZAtz3f00x_fr0-pT-75" vertex="1">
          <mxGeometry x="170" width="30" height="20" as="geometry">
            <mxRectangle width="30" height="20" as="alternateBounds" />
          </mxGeometry>
        </mxCell>
        <mxCell id="-wRGZAtz3f00x_fr0-pT-80" value="-" style="shape=partialRectangle;overflow=hidden;connectable=0;fillColor=#eeeeee;top=0;left=0;bottom=0;right=0;align=left;spacingLeft=6;strokeColor=#36393d;" parent="-wRGZAtz3f00x_fr0-pT-75" vertex="1">
          <mxGeometry x="200" width="60" height="20" as="geometry">
            <mxRectangle width="60" height="20" as="alternateBounds" />
          </mxGeometry>
        </mxCell>
        <mxCell id="-wRGZAtz3f00x_fr0-pT-81" value="10" style="shape=partialRectangle;overflow=hidden;connectable=0;fillColor=#eeeeee;top=0;left=0;bottom=0;right=0;align=left;spacingLeft=6;strokeColor=#36393d;" parent="-wRGZAtz3f00x_fr0-pT-75" vertex="1">
          <mxGeometry x="260" width="110" height="20" as="geometry">
            <mxRectangle width="110" height="20" as="alternateBounds" />
          </mxGeometry>
        </mxCell>
        <mxCell id="-wRGZAtz3f00x_fr0-pT-82" value="회원 번호(member-idx)" style="shape=partialRectangle;overflow=hidden;connectable=0;fillColor=#eeeeee;top=0;left=0;bottom=0;right=0;align=left;spacingLeft=6;strokeColor=#36393d;" parent="-wRGZAtz3f00x_fr0-pT-75" vertex="1">
          <mxGeometry x="370" width="180" height="20" as="geometry">
            <mxRectangle width="180" height="20" as="alternateBounds" />
          </mxGeometry>
        </mxCell>
        <mxCell id="-wRGZAtz3f00x_fr0-pT-100" value="" style="endArrow=ERzeroToMany;html=1;rounded=0;endFill=0;startArrow=ERone;startFill=0;entryX=1;entryY=0.5;entryDx=0;entryDy=0;" parent="1" edge="1" target="-wRGZAtz3f00x_fr0-pT-59">
          <mxGeometry width="50" height="50" relative="1" as="geometry">
            <mxPoint x="-1230" y="-620" as="sourcePoint" />
            <mxPoint x="-1540" y="-750" as="targetPoint" />
          </mxGeometry>
        </mxCell>
        <mxCell id="-wRGZAtz3f00x_fr0-pT-102" value="" style="endArrow=ERzeroToMany;html=1;rounded=0;endFill=0;startArrow=ERone;startFill=0;entryX=0.018;entryY=0.944;entryDx=0;entryDy=0;entryPerimeter=0;" parent="1" target="-wRGZAtz3f00x_fr0-pT-42" edge="1">
          <mxGeometry width="50" height="50" relative="1" as="geometry">
            <mxPoint x="-930" y="-970" as="sourcePoint" />
            <mxPoint x="-590" y="-1080" as="targetPoint" />
            <Array as="points">
              <mxPoint x="-930" y="-1020" />
              <mxPoint x="-620" y="-1020" />
            </Array>
          </mxGeometry>
        </mxCell>
        <mxCell id="-wRGZAtz3f00x_fr0-pT-103" value="" style="endArrow=ERzeroToMany;html=1;rounded=0;endFill=0;startArrow=ERone;startFill=0;" parent="1" edge="1">
          <mxGeometry width="50" height="50" relative="1" as="geometry">
            <mxPoint x="-800" y="-730" as="sourcePoint" />
            <mxPoint x="-430" y="-800" as="targetPoint" />
            <Array as="points">
              <mxPoint x="-800" y="-750" />
              <mxPoint x="-430" y="-750" />
            </Array>
          </mxGeometry>
        </mxCell>
        <mxCell id="-wRGZAtz3f00x_fr0-pT-104" value="" style="endArrow=ERoneToMany;html=1;rounded=0;endFill=0;startArrow=ERone;startFill=0;exitX=1.01;exitY=1.082;exitDx=0;exitDy=0;exitPerimeter=0;" parent="1" edge="1" source="yEf2gbcgYrwrFwAvnMjx-304">
          <mxGeometry width="50" height="50" relative="1" as="geometry">
            <mxPoint x="-847" y="-1040" as="sourcePoint" />
            <mxPoint x="-600" y="-908" as="targetPoint" />
            <Array as="points" />
          </mxGeometry>
        </mxCell>
        <mxCell id="-wRGZAtz3f00x_fr0-pT-105" value="" style="endArrow=ERzeroToMany;html=1;rounded=0;exitX=0.25;exitY=1;exitDx=0;exitDy=0;entryX=0.197;entryY=0.008;entryDx=0;entryDy=0;entryPerimeter=0;endFill=0;startArrow=ERone;startFill=0;" parent="1" source="-wRGZAtz3f00x_fr0-pT-1" target="yEf2gbcgYrwrFwAvnMjx-369" edge="1">
          <mxGeometry width="50" height="50" relative="1" as="geometry">
            <mxPoint x="-790" y="-1080" as="sourcePoint" />
            <mxPoint x="-740" y="-1130" as="targetPoint" />
          </mxGeometry>
        </mxCell>
        <mxCell id="jV_eMt8lWbeipAzmGlRH-9" value="" style="endArrow=ERzeroToMany;html=1;rounded=0;entryX=0.5;entryY=1;entryDx=0;entryDy=0;endFill=0;startArrow=ERone;startFill=0;" edge="1" parent="1" source="C-vyLk0tnHw3VtMMgP7b-23" target="yEf2gbcgYrwrFwAvnMjx-303">
          <mxGeometry width="50" height="50" relative="1" as="geometry">
            <mxPoint x="-970" y="-750" as="sourcePoint" />
            <mxPoint x="-920" y="-800" as="targetPoint" />
          </mxGeometry>
        </mxCell>
        <mxCell id="jV_eMt8lWbeipAzmGlRH-10" value="" style="endArrow=ERzeroToMany;html=1;rounded=0;entryX=0.856;entryY=0.006;entryDx=0;entryDy=0;entryPerimeter=0;endFill=0;startArrow=ERone;startFill=0;" edge="1" parent="1" target="-wRGZAtz3f00x_fr0-pT-50">
          <mxGeometry width="50" height="50" relative="1" as="geometry">
            <mxPoint x="-1200" y="-810" as="sourcePoint" />
            <mxPoint x="-1190" y="-760" as="targetPoint" />
            <Array as="points">
              <mxPoint x="-1200" y="-760" />
              <mxPoint x="-1370" y="-760" />
            </Array>
          </mxGeometry>
        </mxCell>
      </root>
    </mxGraphModel>
  </diagram>
</mxfile>
